<svg xmlns="http://www.w3.org/2000/svg" width="29.218" height="29.218" viewBox="0 0 29.218 29.218">
  <g id="circleSvg" fill="none">
    <path d="M14.609,0A14.609,14.609,0,1,1,0,14.609,14.609,14.609,0,0,1,14.609,0Z" stroke="none"/>
    <path d="M 14.60888671875 4.999996185302734 C 9.310525894165039 4.999996185302734 4.999996185302734 9.310525894165039 4.999996185302734 14.60888671875 C 4.999996185302734 19.90724563598633 9.310525894165039 24.21777725219727 14.60888671875 24.21777725219727 C 19.90724563598633 24.21777725219727 24.21777725219727 19.90724563598633 24.21777725219727 14.60888671875 C 24.21777725219727 9.310525894165039 19.90724563598633 4.999996185302734 14.60888671875 4.999996185302734 M 14.60888671875 -3.814697265625e-06 C 22.67714691162109 -3.814697265625e-06 29.21777725219727 6.540626525878906 29.21777725219727 14.60888671875 C 29.21777725219727 22.67714691162109 22.67714691162109 29.21777725219727 14.60888671875 29.21777725219727 C 6.540626525878906 29.21777725219727 -3.814697265625e-06 22.67714691162109 -3.814697265625e-06 14.60888671875 C -3.814697265625e-06 6.540626525878906 6.540626525878906 -3.814697265625e-06 14.60888671875 -3.814697265625e-06 Z" stroke="none" fill="#e049ea"/>
  </g>
</svg>
