<svg xmlns="http://www.w3.org/2000/svg" width="547" height="77" viewBox="0 0 547 77">
  <g id="devStack" transform="translate(-1270 -1770)">
    <path id="node" d="M38.055,137.015a1.151,1.151,0,0,1-.734-.314l-2.31-2.239c-.349-.314-.18-.432-.06-.491A3.776,3.776,0,0,0,36,133.184a.137.137,0,0,1,.168.02l1.781,1.729a.155.155,0,0,0,.217,0l6.954-6.561a.456.456,0,0,0,.108-.314v-13.1a.405.405,0,0,0-.108-.314L38.163,108.1a.155.155,0,0,0-.217,0l-6.954,6.541a.436.436,0,0,0-.108.314v13.1a.439.439,0,0,0,.108.295l1.9,1.788c1.035.845,1.672-.157,1.672-1.139V116.055c0-.177.084-.334.2-.334h.878c.108,0,.2.138.2.334V129c0,2.259-.746,3.536-2.057,3.536-.4,0-.722,0-1.6-.707l-1.829-1.709a2.951,2.951,0,0,1-.734-2.063v-13.1a2.864,2.864,0,0,1,.734-2.063l6.954-6.561a1.011,1.011,0,0,1,1.456,0l6.954,6.561a2.951,2.951,0,0,1,.734,2.063v13.1a2.864,2.864,0,0,1-.734,2.063l-6.954,6.561a.993.993,0,0,1-.722.334Zm5.619-12.925c0-2.455-1.011-3.1-3.152-3.575-2.166-.471-2.382-.707-2.382-1.532,0-.688.18-1.591,1.781-1.591,1.432,0,1.961.511,2.178,2.082.024.157.1.255.192.255h.9a.174.174,0,0,0,.144-.1.451.451,0,0,0,.048-.255c-.144-2.711-1.239-3.968-3.465-3.968-1.985,0-3.164,1.375-3.164,3.654,0,2.495,1.179,3.163,3.08,3.477,2.274.373,2.454.9,2.454,1.63,0,1.277-.626,1.807-2.093,1.807-1.841,0-2.25-.746-2.382-2.239-.012-.157-.1-.275-.2-.275h-.9c-.108,0-.2.137-.2.334,0,1.905.638,4.184,3.682,4.184,2.226,0,3.489-1.414,3.489-3.889Zm6.557-9.841c0,1.2-.6,2.18-1.335,2.18s-1.335-.982-1.335-2.18c0-1.238.626-2.18,1.335-2.18C49.617,112.048,50.23,113.01,50.23,114.248Zm-.217,0c0-1.021-.505-1.827-1.131-1.827s-1.119.805-1.119,1.827.505,1.846,1.119,1.846C49.509,116.074,50.014,115.249,50.014,114.248Zm-.541,1.218H49.16c-.012-.118-.06-.746-.06-.766-.024-.137-.048-.216-.156-.216h-.265v.982H48.39V113.01h.517c.18,0,.529,0,.529.648,0,.452-.18.55-.289.609.2.02.217.236.253.55A4.322,4.322,0,0,0,49.473,115.466Zm-.337-1.729c0-.334-.144-.334-.217-.334h-.241v.688h.229C49.1,114.09,49.136,113.874,49.136,113.737ZM16.519,85.745a1.734,1.734,0,0,0-.445-1.257L8.7,77.553a.711.711,0,0,0-.409-.2H8.217a.634.634,0,0,0-.409.2L.445,84.488A1.767,1.767,0,0,0,0,85.745l.012,18.661a.927.927,0,0,0,.217.629.292.292,0,0,0,.445,0l4.379-4.106A1.8,1.8,0,0,0,5.5,99.672V90.95a1.767,1.767,0,0,1,.445-1.257l1.865-1.748a.626.626,0,0,1,.445-.2.606.606,0,0,1,.445.2l1.865,1.748a1.767,1.767,0,0,1,.445,1.257v8.722a1.767,1.767,0,0,0,.445,1.257l4.379,4.106a.292.292,0,0,0,.445,0,.891.891,0,0,0,.217-.629l.024-18.661Zm40.329-20.37v34.651a1.767,1.767,0,0,1-.445,1.257l-7.375,6.954a.613.613,0,0,1-.89,0l-7.375-6.954a1.767,1.767,0,0,1-.445-1.257V86.118a1.767,1.767,0,0,1,.445-1.257l7.375-6.954a.613.613,0,0,1,.89,0l1.841,1.729c.2.2.469-.059.469-.432V60.738c0-.55.361-.9.662-.629l4.391,4.007a1.705,1.705,0,0,1,.457,1.257ZM51.313,90.695a.456.456,0,0,0-.108-.314l-2.527-2.4a.17.17,0,0,0-.229,0l-2.527,2.4a.405.405,0,0,0-.108.314v4.773a.456.456,0,0,0,.108.314L48.45,98.16a.155.155,0,0,0,.217,0l2.527-2.377a.405.405,0,0,0,.108-.314V90.695Zm25.242-.138A1.767,1.767,0,0,0,77,89.3V85.941a1.767,1.767,0,0,0-.445-1.257L69.228,77.73a.613.613,0,0,0-.89,0l-7.375,6.954a1.767,1.767,0,0,0-.445,1.257V99.849a1.734,1.734,0,0,0,.445,1.257l7.327,6.816a.6.6,0,0,0,.878,0L73.6,103.9a.989.989,0,0,0,0-1.257l-7.423-6.954a.877.877,0,0,1-.229-.629V90.695a.877.877,0,0,1,.229-.629l2.31-2.18a.292.292,0,0,1,.445,0l2.31,2.18a.932.932,0,0,1,.229.629v3.418c0,.55.373.9.674.629Zm-9.3.688a.366.366,0,0,0-.084.236v2.672a.329.329,0,0,0,.084.236l1.42,1.336a.1.1,0,0,0,.168,0l1.42-1.336a.366.366,0,0,0,.084-.236V91.481a.329.329,0,0,0-.084-.236l-1.42-1.336a.1.1,0,0,0-.168,0ZM36.671,99.79V85.961A1.777,1.777,0,0,0,36.2,84.7l-7.351-6.915a.613.613,0,0,0-.89,0L20.61,84.7a1.743,1.743,0,0,0-.469,1.257V99.79a1.779,1.779,0,0,0,.481,1.257l7.363,6.915a.6.6,0,0,0,.89,0l7.339-6.915a1.573,1.573,0,0,0,.433-.923A2.783,2.783,0,0,0,36.671,99.79ZM27.732,75.255l-.1.1h.132ZM36.9,100.831l-.048-.138v.177Z" transform="translate(1458 1709.985)" fill="#2f89fc"/>
    <path id="html5" d="M0,32l7,68.028L38.4,109,70,100.028,77,32ZM61.8,53.983H24.945l.822,8.491H60.978L58.251,87.98,38.62,92.62v.052H38.4L18.608,87.98l-1.2-13.028H26.97l.7,6.548L38.4,83.992,49.168,81.5l1.2-10.691H16.9L14.337,45.784H62.683Z" transform="translate(1270 1738)" fill="#2f89fc"/>
    <path id="php" d="M38.5,91.543c20.622,0,36.479,16.516,36.479,34.657S59.11,160.857,38.5,160.857,2.021,144.341,2.021,126.2,17.89,91.543,38.5,91.543m0-3.843A38.5,38.5,0,1,0,77,126.2,38.5,38.5,0,0,0,38.5,87.7ZM26.252,123.112c-.95,9.265-4.307,8.3-8.434,8.3l1.648-16.15c4.572,0,7.676-.938,6.786,7.846Zm-14.534,24.66h4.415l1.047-10.248c4.945,0,8.013.686,10.852-4.369,3.14-5.49,3.958-15.258,1.72-20.154a5.82,5.82,0,0,0-5.595-3.82H15.653ZM34.06,98.909h4.391l-1.047,10.248c3.79,0,7.3-.526,9,2.448,1.781,3.111.926,7.091-1,25.873H40.954c1.853-18.163,2.2-19.673,1.528-21.046-.65-1.327-2.13-1.052-5.7-1.052l-2.262,22.1H30.126L34.06,98.909Zm26.7,24.2c-.963,9.4-4.415,8.3-8.434,8.3l1.648-16.15c4.6,0,7.676-.938,6.786,7.846Zm-14.534,24.66h4.427L51.7,137.524c5.2,0,8.073.572,10.852-4.369,3.14-5.49,3.958-15.258,1.72-20.154a5.82,5.82,0,0,0-5.595-3.82H50.17Z" transform="translate(1552 1682.3)" fill="#2f89fc"/>
    <path id="python" d="M28.839,32.755C21.071,34.13,19.661,37,19.661,42.311v7H38.034v2.337H12.769c-5.345,0-10.02,3.214-11.481,9.315-1.684,7-1.753,11.361,0,18.665,1.306,5.431,4.417,9.315,9.762,9.315h6.308V80.552A11.67,11.67,0,0,1,28.839,69.14H47.195a9.254,9.254,0,0,0,9.178-9.332V42.294c0-4.984-4.194-8.714-9.178-9.556A56.653,56.653,0,0,0,28.839,32.755Zm-1.152,4.881a3.5,3.5,0,1,1-3.455,3.506A3.5,3.5,0,0,1,27.688,37.636Zm31.83,13.99V59.79A11.788,11.788,0,0,1,48.037,71.443H29.681A9.366,9.366,0,0,0,20.5,80.775v17.5c0,4.984,4.331,7.906,9.178,9.332a30.885,30.885,0,0,0,18.356,0c4.623-1.341,9.178-4.039,9.178-9.332v-7H38.876V88.939H66.41c5.345,0,7.322-3.73,9.178-9.315,1.925-5.758,1.839-11.292,0-18.665-1.323-5.311-3.833-9.315-9.178-9.315H59.518ZM49.188,95.934a3.5,3.5,0,1,1-3.455,3.489A3.473,3.473,0,0,1,49.188,95.934Z" transform="translate(1646.001 1738.001)" fill="#2f89fc"/>
    <path id="node-js" d="M39.183,81.05a7.427,7.427,0,0,1-3.343-.795L25.206,74.679c-1.585-.795-.81-1.07-.293-1.222a22.333,22.333,0,0,0,4.808-1.94.862.862,0,0,1,.793.061l8.169,4.293a1.11,1.11,0,0,0,.982,0L71.5,59.583a.888.888,0,0,0,.483-.764V26.243a.9.9,0,0,0-.5-.779L39.665,9.191a1.11,1.11,0,0,0-.982,0L6.887,25.479a.878.878,0,0,0-.5.779v32.56a.834.834,0,0,0,.5.749l8.72,4.462c4.739,2.093,7.635-.367,7.635-2.857V29.024a.867.867,0,0,1,.931-.81H28.2a.878.878,0,0,1,.931.81V61.187c0,5.592-3.447,8.8-9.427,8.8-1.844,0-3.292,0-7.324-1.772L4.043,63.952A5.853,5.853,0,0,1,.7,58.8V26.243a5.871,5.871,0,0,1,3.343-5.149l31.8-16.288a7.768,7.768,0,0,1,6.687,0l31.831,16.3A5.853,5.853,0,0,1,77.7,26.258v32.56a5.889,5.889,0,0,1-3.343,5.149L42.526,80.255A7.374,7.374,0,0,1,39.183,81.05Zm25.7-32.1c0-6.1-4.653-7.716-14.425-8.862-9.892-1.161-10.892-1.757-10.892-3.8,0-1.7.844-3.957,8.169-3.957,6.532,0,8.944,1.253,9.944,5.164a.9.9,0,0,0,.9.642h4.136a.956.956,0,0,0,.672-.26.793.793,0,0,0,.241-.626c-.638-6.738-5.687-9.87-15.889-9.87-9.082,0-14.494,3.392-14.494,9.091,0,6.173,5.394,7.884,14.1,8.648,10.426.9,11.236,2.261,11.236,4.08,0,3.148-2.861,4.492-9.565,4.492-8.427,0-10.271-1.879-10.892-5.592A.887.887,0,0,0,37.2,47.4H33.082a.861.861,0,0,0-.913.81c0,4.752,2.912,10.42,16.855,10.42,10.064-.015,15.855-3.545,15.855-9.687Z" transform="translate(1363.3 1765.95)" fill="#2f89fc"/>
    <path id="react" d="M62.893,56.965q-1.218-.464-2.436-.877c.135-.636.256-1.272.376-1.908,1.85-10.243.632-18.476-3.474-21.191-3.955-2.6-10.407.1-16.934,6.6-.647.636-1.278,1.306-1.88,1.976-.406-.447-.827-.894-1.248-1.323C30.454,33.3,23.6,30.378,19.491,33.11c-3.94,2.612-5.113,10.364-3.459,20.057.165.962.346,1.908.556,2.87-.962.309-1.91.653-2.8,1.014C5.76,60.231,0,65.249,0,70.44,0,75.8,6.136,81.181,14.483,84.447c.677.258,1.354.516,2.045.739-.226,1.031-.421,2.045-.6,3.094-1.579,9.539-.346,17.1,3.594,19.7,4.061,2.681,10.888-.069,17.536-6.72.526-.533,1.053-1.083,1.579-1.667.662.739,1.354,1.444,2.045,2.131,6.437,6.325,12.8,8.885,16.723,6.29,4.061-2.681,5.384-10.81,3.67-20.71q-.2-1.134-.451-2.32c.481-.155.947-.327,1.414-.5C70.714,81.2,77,75.888,77,70.44,77,65.232,71.075,60.179,62.893,56.965ZM42.546,42.374c5.595-5.568,10.813-7.751,13.189-6.187,2.542,1.667,3.519,8.4,1.925,17.255-.105.584-.211,1.152-.346,1.719a68.14,68.14,0,0,0-10.121-1.822,85.887,85.887,0,0,0-6.407-9.126c.587-.636,1.158-1.237,1.76-1.839Zm-19.551,32.5c.692,1.512,1.4,3.008,2.151,4.486.767,1.5,1.549,2.99,2.376,4.451a60.3,60.3,0,0,1-6.978-1.289c.662-2.475,1.489-5.036,2.451-7.648Zm0-8.7c-.947-2.561-1.745-5.07-2.406-7.493a66.268,66.268,0,0,1,6.858-1.341c-.8,1.426-1.579,2.887-2.316,4.365-.737,1.461-1.459,2.956-2.136,4.469Zm1.714,4.348c.993-2.372,2.075-4.692,3.218-6.978s2.376-4.5,3.67-6.686c2.256-.189,4.557-.292,6.9-.292s4.662.1,6.9.292q1.917,3.248,3.654,6.651c1.158,2.269,2.241,4.589,3.263,6.943q-1.511,3.558-3.248,7.012c-1.143,2.286-2.361,4.5-3.639,6.7-2.241.189-4.572.275-6.933.275s-4.647-.086-6.858-.241q-1.963-3.274-3.7-6.7c-1.158-2.286-2.226-4.606-3.233-6.978Zm27.161,8.8c.767-1.512,1.489-3.042,2.2-4.589.962,2.492,1.8,5.018,2.542,7.614a58.563,58.563,0,0,1-7.068,1.375c.812-1.444,1.579-2.922,2.331-4.4Zm2.166-13.148c-.707-1.512-1.429-3.025-2.181-4.5q-1.105-2.191-2.3-4.331a61.394,61.394,0,0,1,6.9,1.375C55.765,61.262,54.953,63.737,54.035,66.177ZM38.53,46.842A74.233,74.233,0,0,1,42.982,53a86.335,86.335,0,0,0-8.948,0C35.507,50.778,37.026,48.716,38.53,46.842ZM21.085,36.307c2.527-1.684,8.136.722,14.046,6.7.376.378.752.791,1.143,1.2a86.252,86.252,0,0,0-6.452,9.126,70.136,70.136,0,0,0-10.106,1.787c-.2-.877-.361-1.77-.526-2.664-1.414-8.318-.481-14.591,1.895-16.155ZM17.4,81.611c-.632-.206-1.248-.43-1.865-.67a29.337,29.337,0,0,1-9.475-5.362A7.908,7.908,0,0,1,3.233,70.44c0-3.145,4.752-7.167,11.61-9.9.857-.344,1.729-.653,2.6-.945A99.712,99.712,0,0,0,21.13,70.525,102.518,102.518,0,0,0,17.4,81.611ZM34.936,98.454a27.285,27.285,0,0,1-8.482,6.067,5.9,5.9,0,0,1-5.309.223c-2.391-1.581-3.384-7.648-2.03-15.812.165-.962.346-1.925.556-2.87a66.475,66.475,0,0,0,10.212,1.684,89.57,89.57,0,0,0,6.5,9.178c-.481.533-.963,1.048-1.444,1.53Zm3.685-4.176c-1.534-1.891-3.068-3.987-4.557-6.239,1.444.069,2.933.1,4.437.1,1.549,0,3.068-.034,4.572-.12A73.128,73.128,0,0,1,38.62,94.277Zm19.656,5.156a8.018,8.018,0,0,1-2.481,5.379c-2.391,1.581-7.489-.481-12.994-5.878-.632-.619-1.263-1.289-1.91-1.976a84.382,84.382,0,0,0,6.346-9.212,65.586,65.586,0,0,0,10.257-1.8c.15.7.286,1.409.406,2.1A35.716,35.716,0,0,1,58.276,99.433Zm2.737-18.476c-.421.155-.842.309-1.278.447A94.963,94.963,0,0,0,55.9,70.44a94.7,94.7,0,0,0,3.685-10.81c.782.258,1.534.533,2.256.808,7.008,2.75,11.926,6.84,11.926,9.968C73.767,73.774,68.518,78.122,61.013,80.958ZM38.5,62.637c3.8,0,6.888,3.523,6.888,7.871S42.3,78.38,38.5,78.38s-6.888-3.523-6.888-7.871S34.7,62.637,38.5,62.637" transform="translate(1740 1737.988)" fill="#2f89fc"/>
  </g>
</svg>
