<svg xmlns="http://www.w3.org/2000/svg" width="85.596" height="83.457" viewBox="0 0 85.596 83.457">
  <path id="github" d="M28.63,75.2c0,.345-.4.621-.9.621-.569.052-.966-.224-.966-.621,0-.345.4-.621.9-.621C28.181,74.526,28.63,74.8,28.63,75.2Zm-5.367-.777c-.121.345.224.742.742.846a.809.809,0,0,0,1.07-.345c.1-.345-.224-.742-.742-.9a.886.886,0,0,0-1.07.4Zm7.628-.293c-.5.121-.846.449-.794.846.052.345.5.569,1.018.449.5-.121.846-.449.794-.794C31.857,74.3,31.391,74.078,30.89,74.129ZM42.246,8C18.31,8,0,26.172,0,50.107A43.265,43.265,0,0,0,29.251,91.387c2.209.4,2.985-.966,2.985-2.088,0-1.07-.052-6.972-.052-10.6,0,0-12.08,2.589-14.617-5.143,0,0-1.967-5.022-4.8-6.316,0,0-3.952-2.709.276-2.658a9.109,9.109,0,0,1,6.661,4.452c3.779,6.661,10.113,4.746,12.58,3.607a9.591,9.591,0,0,1,2.761-5.816C25.4,65.76,15.67,64.362,15.67,47.761c0-4.746,1.312-7.127,4.073-10.164a16.3,16.3,0,0,1,.449-11.718C23.8,24.757,32.1,30.538,32.1,30.538a40.768,40.768,0,0,1,21.675,0s8.3-5.8,11.907-4.659A16.3,16.3,0,0,1,66.129,37.6c2.761,3.055,4.452,5.436,4.452,10.164,0,16.653-10.164,17.982-19.811,19.069,1.588,1.363,2.934,3.952,2.934,8.007,0,5.816-.052,13.012-.052,14.427,0,1.122.794,2.485,2.985,2.088C73.9,85.623,85.6,69.246,85.6,50.107,85.6,26.172,66.181,8,42.246,8ZM16.774,67.52c-.224.173-.173.569.121.9.276.276.673.4.9.173.224-.173.173-.569-.121-.9C17.4,67.416,17,67.3,16.774,67.52Zm-1.864-1.4c-.121.224.052.5.4.673a.513.513,0,0,0,.742-.121c.121-.224-.052-.5-.4-.673C15.307,65.9,15.031,65.95,14.91,66.122ZM20.5,72.266c-.276.224-.173.742.224,1.07.4.4.9.449,1.122.173.224-.224.121-.742-.224-1.07C21.244,72.041,20.726,71.99,20.5,72.266Zm-1.967-2.537c-.276.173-.276.621,0,1.018s.742.569.966.4a.787.787,0,0,0,0-1.07c-.242-.4-.69-.569-.966-.345Z" transform="translate(0 -8)" fill="#2f89fc"/>
</svg>
