<svg xmlns="http://www.w3.org/2000/svg" width="91.455" height="91.435" viewBox="0 0 91.455 91.435">
  <path id="instagram" d="M45.663,54.1A23.443,23.443,0,1,0,69.106,77.542,23.406,23.406,0,0,0,45.663,54.1Zm0,38.684A15.241,15.241,0,1,1,60.9,77.542,15.269,15.269,0,0,1,45.663,92.783Zm29.87-39.643a5.468,5.468,0,1,1-5.468-5.468A5.455,5.455,0,0,1,75.532,53.141Zm15.526,5.55c-.347-7.325-2.02-13.813-7.386-19.158-5.346-5.346-11.834-7.019-19.158-7.386-7.549-.428-30.176-.428-37.725,0-7.3.347-13.792,2.02-19.158,7.365S.614,51.345.246,58.67c-.428,7.549-.428,30.176,0,37.725.347,7.325,2.02,13.813,7.386,19.158s11.834,7.019,19.158,7.386c7.549.428,30.176.428,37.725,0,7.325-.347,13.813-2.02,19.158-7.386,5.346-5.346,7.019-11.834,7.386-19.158.428-7.549.428-30.155,0-37.7Zm-9.753,45.8a15.43,15.43,0,0,1-8.692,8.692c-6.019,2.387-20.3,1.836-26.952,1.836s-20.954.53-26.952-1.836a15.43,15.43,0,0,1-8.692-8.692c-2.387-6.019-1.836-20.3-1.836-26.952s-.53-20.954,1.836-26.952A15.43,15.43,0,0,1,18.711,41.9c6.019-2.387,20.3-1.836,26.952-1.836s20.954-.53,26.952,1.836a15.43,15.43,0,0,1,8.692,8.692c2.387,6.019,1.836,20.3,1.836,26.952S83.694,98.5,81.306,104.494Z" transform="translate(0.075 -31.825)" fill="#2f89fc"/>
</svg>
