<svg xmlns="http://www.w3.org/2000/svg" width="77.85" height="77.85" viewBox="0 0 77.85 77.85">
  <path id="linkedin" d="M72.289,32H5.543A5.585,5.585,0,0,0,0,37.613v66.624a5.585,5.585,0,0,0,5.543,5.613H72.289a5.6,5.6,0,0,0,5.561-5.613V37.613A5.6,5.6,0,0,0,72.289,32ZM23.529,98.728H11.99V61.576H23.546V98.728ZM17.759,56.5a6.69,6.69,0,1,1,6.69-6.69A6.693,6.693,0,0,1,17.759,56.5ZM66.78,98.728H55.242V80.656c0-4.31-.087-9.853-6-9.853-6.013,0-6.933,4.692-6.933,9.54V98.728H30.775V61.576H41.844V66.65H42a12.153,12.153,0,0,1,10.93-6c11.677,0,13.85,7.7,13.85,17.707Z" transform="translate(0 -32)" fill="#2f89fc"/>
</svg>
