<svg xmlns="http://www.w3.org/2000/svg" xmlns:xlink="http://www.w3.org/1999/xlink" width="264.084" height="118.514" viewBox="0 0 264.084 118.514">
  <defs>
    <linearGradient id="linear-gradient" y1="0.5" x2="1" y2="0.5" gradientUnits="objectBoundingBox">
      <stop offset="0" stop-color="gray" stop-opacity="0.251"/>
      <stop offset="0.54" stop-color="gray" stop-opacity="0.122"/>
      <stop offset="1" stop-color="gray" stop-opacity="0.102"/>
    </linearGradient>
    <linearGradient id="linear-gradient-2" x1="-8.171" y1="1" x2="-8.171" y2="0" xlink:href="#linear-gradient"/>
  </defs>
  <g id="serviceSvg" transform="translate(-128 -17.743)">
    <path id="Path_17" data-name="Path 17" d="M280.035,298.848a18.023,18.023,0,0,1-5.218,5.828c-.309.23-.624.452-.944.669q-.646.422-1.325.83A45.373,45.373,0,0,1,260.9,310.7q-1.643.422-3.3.794-1.4.315-2.793.587c-.354.072-.708.139-1.062.211s-.76.141-1.134.211l-.538.1a148.8,148.8,0,0,1-31.534,1.677l-.5-.023-.805-.038q-3.23-.156-6.468-.4l-.817-.061-.361-.027q-1.815-.141-3.63-.31-2.391-.211-4.789-.467l-.206-.021-.168-.019h0c-5.706-.6-11.425-1.316-17.151-2.052l-.81-.106-1.454-.188-1.225-.158h0l-.363-.046q-2.9-.378-5.8-.748l-.313-.04c-3.63-.462-7.28-.908-10.919-1.313l-.474-.053h0q-2.235-.247-4.467-.471l-1.134-.112-1.509-.141c-4.181-.386-8.36-.695-12.529-.887q-3.008-.139-6.03-.211-2.5-.053-4.991-.061-3.385-.015-6.783.036h-.513c-3.192.049-6.391.133-9.592.234l-.576.017h-.191c-6.806.224-13.612.522-20.4.735l-1.658.051h-.24q-3.539.106-7.071.163h-1.4l-1.053.013q-1.64.015-3.274.017H79.543c-4-.011-7.979-.093-11.935-.285l-.44-.023a161.768,161.768,0,0,1-22.756-2.635q-1.159-.226-2.314-.473a112.216,112.216,0,0,1-15.154-4.289,18.443,18.443,0,0,1-6.427-3.471c-4.483-4.223-2.8-12.494,3.033-14.9,4.562-1.881,9.907-.351,14.814-1.2a8.037,8.037,0,0,0,.892-.211,12.92,12.92,0,0,0,1.815-.7c.2-.093.4-.192.6-.3.454-.23.907-.486,1.343-.764a20.541,20.541,0,0,0,2.042-1.442q.431-.342.839-.71a15.254,15.254,0,0,0,2.477-2.76,9.55,9.55,0,0,0,.681-1.191,6.038,6.038,0,0,0,.281-.659,5.8,5.8,0,0,0,.27-.976,4.354,4.354,0,0,0-1.788-4.388,4.735,4.735,0,0,0-.454-.319,7.073,7.073,0,0,0-.985-.53c-.138-.061-.281-.12-.427-.177a60.8,60.8,0,0,0-7-1.689h0a12.993,12.993,0,0,1-2.005-.648c-.411-.177-.819-.363-1.221-.557h0l-.107-.055h0a27,27,0,0,1-8.848-6.757,22.032,22.032,0,0,1-1.647-2.226c-.152-.232-.3-.471-.44-.709-3.986-6.694-4.4-15.271-.25-21.853a20.676,20.676,0,0,1,1.679-2.293q.3-.361.619-.709c3.947-4.335,9.619-7.272,15.345-9.447a114.414,114.414,0,0,1,23.934-5.976q2.5-.37,4.991-.663c6.965-.828,14.011-1.267,21.007-1.6q9.816-.462,19.719-.6,3.355-.042,6.717-.036,7.575,0,15.15.272,2.5.089,4.991.211,6.4.308,12.774.845,3.063.258,6.112.568a267.214,267.214,0,0,1,45.467,8.4q2.507.705,4.991,1.478,9.292,2.848,18.237,6.561.844.353,1.683.709,5.579,2.382,11,5.133a124.035,124.035,0,0,1,13.748,8.024q2.568,1.753,4.991,3.657a69.625,69.625,0,0,1,7.965,7.315q.327.353.647.71,1.661,1.856,3.153,3.845a71.782,71.782,0,0,1,10.517,21.513C281.988,285.24,283.4,292.675,280.035,298.848Z" transform="translate(110.035 -183.031)" fill="#6c63ff" opacity="0.1"/>
    <path id="Path_18" data-name="Path 18" d="M299.829,276.082h-19.38V253.156h8.62q-.32-.357-.647-.709h-7.965v-7.308q-2.418-1.9-4.991-3.654v10.971H230.79V228.337h19.92q-.842-.357-1.683-.709H230.79v-6.555q-2.5-.766-4.991-1.477v8.017H162.036l-.152-.135L180.329,211.2q-3.049-.312-6.111-.568L161.444,221.9v-12.11q-2.5-.122-4.991-.211v13.1L141.3,209.31q-3.36,0-6.717.036l20.543,18.133-.152.135H93.859V211.565q-2.5.293-4.991.662v15.4H49.588q-.32.348-.619.709h39.9v24.11H47.53c.141.238.288.477.44.709H88.864v22.926H68.749q-.408.367-.839.709H88.864v23.46q2.5.331,4.991.692V276.791h62.594v29.395q2.5,0,4.991.061V276.791h64.355v35.985l.206.021q2.4.249,4.789.466V276.791h44.664v35.561c.381-.065.762-.135,1.134-.211s.708-.133,1.062-.211q1.4-.276,2.793-.586V276.791h19.536Zm-143.38,0H93.859V253.156h62.59Zm0-23.629H93.859V228.337h61.7l.88.646Zm69.345,23.629h-64.35V253.156h64.35Zm0-23.629h-64.35V228.337h64.35Zm49.66,23.629H230.79V253.156h44.664Z" transform="translate(87.184 -182.98)" fill="#6c63ff" opacity="0.1"/>
    <path id="Path_19" data-name="Path 19" d="M315.065,679.24a.331.331,0,0,1-.025.076h0a.2.2,0,0,1,.027-.076Z" transform="translate(-119.646 -554.206)" fill="#eaecf0"/>
    <path id="Path_20" data-name="Path 20" d="M309.039,640.615h-1.4l-1.054.014-.116-1.213-.107-1.151-.5-5.25-.016-.161v-.071l-.139-1.478,2.121-.806.259,2.143.018.159v.018l.525,4.35.161,1.335.093.776.079.665v.023Z" transform="translate(-112.433 -516.684)" fill="#eaecf0"/>
    <path id="Path_21" data-name="Path 21" d="M335.368,507.2l.025.076h-.168l-.025-.076Z" transform="translate(-131.158 -382.168)" fill="#3a3768"/>
    <path id="Path_22" data-name="Path 22" d="M439.4,679.55Z" transform="translate(-215.793 -554.444)" fill="#3a3768"/>
    <path id="Path_23" data-name="Path 23" d="M358.738,538.784v.1a59.858,59.858,0,0,0-2.625,10.166q-.066.46-.109.921c-.032.325-.057.642-.07.951-.018.361-.023.711-.014,1.045v.23c0,.154.016.313.025.476s.023.327.036.5.027.32.043.483a107.612,107.612,0,0,0,2.344,12.477s.061.2.141.541H358c-3.2.053-6.4.145-9.6.255l-.577.018h-.191c-6.813.244-13.626.568-20.421.8l-1.66.055H325.3q-3.543.115-7.079.177H317.6a3.863,3.863,0,0,1,.55-.628,4.009,4.009,0,0,1,.556-.437,12.437,12.437,0,0,1,3.486-1.517,2.746,2.746,0,0,1,.8-.1l1.59.032h.245l2.439.048,20.921.421h.052l.148-.03a3.889,3.889,0,0,0,.706-.253,2.508,2.508,0,0,0,1.49-1.952c0-.071.018-.147.023-.23a2.756,2.756,0,0,0,0-.336,1.155,1.155,0,0,0-.018-.246c-.018-.085-.023-.17-.039-.258-.5-2.856-1.363-11.648-1.363-11.648v.028s0-.375.02-1.006v-.29c0-.14.016-.292.025-.46,0-.1.014-.2.02-.306.011-.154.025-.313.039-.479a.136.136,0,0,1,0-.03q.014-.156.027-.318v-.034c.338-3.395,1.4-8.769,4.769-10.76,1.578-.937,2.623-1.125,3.311-.941a2.065,2.065,0,0,1,1.31,2.014v.133A3.413,3.413,0,0,1,358.738,538.784Z" transform="translate(-121.638 -444.075)" fill="#3a3768"/>
    <path id="Path_24" data-name="Path 24" d="M315.065,679.24a.331.331,0,0,1-.025.076h0a.2.2,0,0,1,.027-.076Z" transform="translate(-119.646 -554.206)" opacity="0.1"/>
    <path id="Path_25" data-name="Path 25" d="M335.368,507.2l.025.076h-.168l-.025-.076Z" transform="translate(-131.158 -382.168)" opacity="0.1"/>
    <path id="Path_26" data-name="Path 26" d="M439.4,679.55Z" transform="translate(-215.793 -554.444)" opacity="0.1"/>
    <path id="Path_27" data-name="Path 27" d="M358.684,538.49v.071a63.294,63.294,0,0,0-2.412,8.859h0q-.082.46-.15.891c-.023.147-.043.295-.064.442q-.066.46-.109.921c-.032.324-.057.642-.07.951-.018.361-.023.711-.014,1.045v.23c0,.154.016.313.025.476s.023.329.036.5.027.32.043.483.032.32.05.481c.073.651.164,1.335.268,2.03.711,4.688,2.026,9.94,2.026,9.94s.066.212.145.566h-.513c-3.2.053-6.4.145-9.6.255l-.577.018h-.191c-6.813.244-13.626.568-20.421.8l-1.66.055h-.241q-3.543.115-7.079.177h-.645a3.938,3.938,0,0,1,.568-.651,3.771,3.771,0,0,1,.559-.442,12.57,12.57,0,0,1,3.486-1.517,2.823,2.823,0,0,1,.8-.1l1.59.032h.245l2.446.048,20.937.419h.036a.569.569,0,0,0,.164-.035,3.636,3.636,0,0,0,.711-.26,2.506,2.506,0,0,0,1.469-1.913c0-.071.018-.147.023-.23a2.757,2.757,0,0,0,0-.336,1.155,1.155,0,0,0-.018-.246c-.018-.085-.023-.186-.039-.283-.5-2.856-1.363-11.648-1.363-11.648s0-.375.02-1.006v-.29c0-.14.016-.292.025-.46,0-.1.014-.2.02-.306.011-.154.025-.313.039-.479a.137.137,0,0,1,0-.03q.014-.156.027-.318V547.6c.041-.424.1-.879.164-1.356.472-3.333,1.653-7.685,4.6-9.436,1.538-.921,2.566-1.114,3.257-.955a2.049,2.049,0,0,1,1.363,2.055v.133a3.408,3.408,0,0,1,.032.449Z" transform="translate(-121.584 -443.781)" opacity="0.1"/>
    <path id="Path_28" data-name="Path 28" d="M315.065,679.24a.331.331,0,0,1-.025.076h0a.2.2,0,0,1,.027-.076Z" transform="translate(-119.646 -554.206)" fill="#3a3768"/>
    <path id="Path_29" data-name="Path 29" d="M335.368,507.2l.025.076h-.168l-.025-.076Z" transform="translate(-131.158 -382.168)" fill="#3a3768"/>
    <path id="Path_30" data-name="Path 30" d="M439.4,679.55Z" transform="translate(-215.793 -554.444)" fill="#3a3768"/>
    <path id="Path_31" data-name="Path 31" d="M355.521,537.673s-2.964,8.207-2.821,13.119,2.457,14.141,2.457,14.141.1.324.207.842c-3.2.053-6.4.145-9.6.255l-.577.018h-.191c-6.813.244-13.626.569-20.421.8l-1.66.055h-.241q-3.543.115-7.079.177h-1.4a4.119,4.119,0,0,1,1.247-1.328l.061-.044a12.552,12.552,0,0,1,3.484-1.484,2.823,2.823,0,0,1,.8-.1l2.1.041h.245l2.528.051,20.383.412a3.393,3.393,0,0,0,.843-.279,2.409,2.409,0,0,0,.259-.14h0a2.736,2.736,0,0,0,.681-.564,2.633,2.633,0,0,0,.525-2.3c-.506-2.856-1.363-11.648-1.363-11.648s-.145-10.7,4.915-13.7c2.044-1.213,3.193-1.171,3.836-.69a.43.43,0,0,1,.055.041A3.03,3.03,0,0,1,355.521,537.673Z" transform="translate(-119.002 -443.16)" fill="#3a3768"/>
    <path id="Path_32" data-name="Path 32" d="M127.233,631.436l-.082.858-.5,5.268q-1.161-.246-2.316-.516l.579-4.79.2-1.627Z" transform="translate(27.818 -516.783)" fill="#eaecf0"/>
    <path id="Path_33" data-name="Path 33" d="M55.12,365.467,67.488,338.79l49.82,3.938,4.592,22.74Z" transform="translate(85.397 -250.343)" fill="#efc6cd"/>
    <path id="Path_34" data-name="Path 34" d="M55.12,457.027V454.7H121.9v3.4Z" transform="translate(85.397 -341.751)" fill="#d48a9b"/>
    <path id="Path_35" data-name="Path 35" d="M154.311,566.134l29.878.617a.412.412,0,0,0,.342-.17.423.423,0,0,0,.06-.381l-4.658-12.732-20.124-.389-5.952,12.35a.508.508,0,0,0,.039.477.494.494,0,0,0,.416.227Z" transform="translate(5.037 -454.883)" fill="#dfe6f5"/>
    <path id="Path_36" data-name="Path 36" d="M154.311,566.134l29.878.617a.412.412,0,0,0,.342-.17.423.423,0,0,0,.06-.381l-4.658-12.732-20.124-.389-5.952,12.35a.508.508,0,0,0,.039.477.494.494,0,0,0,.416.227Z" transform="translate(5.037 -454.883)" opacity="0.15"/>
    <path id="Path_37" data-name="Path 37" d="M154.94,563.878l30.187.644-4.1-12.6a1.026,1.026,0,0,0-.952-.714l-19.4-.373Z" transform="translate(4.168 -453.117)" fill="#dfe6f5"/>
    <path id="Path_38" data-name="Path 38" d="M165.629,566.208l3.618-8.067a.965.965,0,0,1,.877-.571h8.991a.967.967,0,0,1,.961.974v8.716a.982.982,0,0,1-.3.705.956.956,0,0,1-.71.268l-12.611-.651a.959.959,0,0,1-.772-.465A.985.985,0,0,1,165.629,566.208Z" transform="translate(-4.028 -458.237)" fill="#4c4c56"/>
    <path id="Path_39" data-name="Path 39" d="M244,572.954l.154-4.6a.7.7,0,0,1,.695-.69h2.657a.7.7,0,0,1,.681.585l.781,4.578a.713.713,0,0,1-.152.573.694.694,0,0,1-.529.253l-3.6.032a.69.69,0,0,1-.5-.215A.71.71,0,0,1,244,572.954Z" transform="translate(-64.722 -465.912)" fill="#d1d9ec"/>
    <path id="Path_40" data-name="Path 40" d="M85.325,457.727l10.018-.847a.68.68,0,0,1,.713.407l9.473,21.729-5.287,12.028c.166-.377.288,2.559-.908.014L84.278,459.23C84.076,458.8,84.855,457.787,85.325,457.727Z" transform="translate(58.807 -380.249)" fill="#4c4c56"/>
    <path id="Path_41" data-name="Path 41" d="M85.325,457.727l10.018-.847a.68.68,0,0,1,.713.407l9.473,21.729-5.287,12.028c.166-.377.288,2.559-.908.014L84.278,459.23C84.076,458.8,84.855,457.787,85.325,457.727Z" transform="translate(58.807 -380.249)" opacity="0.15"/>
    <path id="Path_42" data-name="Path 42" d="M86.936,456l10.526-1.363a.68.68,0,0,1,.713.407l9.475,21.729-5.732,13.038L86.4,456.99a.7.7,0,0,1,.017-.635A.681.681,0,0,1,86.936,456Z" transform="translate(57.196 -378.468)" fill="#4c4c56"/>
    <path id="Path_43" data-name="Path 43" d="M98.589,463.173l7.61-1.2a.68.68,0,0,1,.738.424l7.971,19.761a.634.634,0,0,1-.014.506l-3.65,7.729a.612.612,0,0,1-1.115,0L98.074,464.154a.7.7,0,0,1,.014-.622A.681.681,0,0,1,98.589,463.173Z" transform="translate(48.17 -383.844)" fill="#6c63ff"/>
    <path id="Path_45" data-name="Path 45" d="M248.478,454.209s-.157.262-.386.69l-.02.039c-.2.368-.454.852-.709,1.381l-.577.018H246.6c-6.813.244-13.626.569-20.421.8l-1.66.055h-.241q-3.543.115-7.079.177h-1.4l-1.054.014q-1.642.016-3.277.018h-1.3c-4-.012-7.987-.1-11.948-.311l-.441-.025c.779-1.717,2.171-4.532,3.3-5.432.874-.69,7.154-1.457,12.929-2.018l.609-.06h.014l1.612-.152c2.21-.2,4.215-.371,5.646-.483l.132-.012-.745-2.532-1.079-3.683.307-3.093.025-.249h-.034a1.981,1.981,0,0,1-.908-.115l-10.785-.378h-.2l-4.142-.15h0c-2.221-.081-3.8-.14-3.861-.152a.968.968,0,0,1-.191-.053.856.856,0,0,1-.263-.161,1.064,1.064,0,0,1-.227-.276h-.145l-.586.039-.3.021c-.011-.032-.02-.064-.032-.094-.027-.09-.055-.175-.079-.262h-.157l-2.044-.044h-.036s-5.273.407-8.028-.61h0c-1.011-.373-1.683-.937-1.631-1.781a1.949,1.949,0,0,1,.118-.562c-.886-1.678,3.441-4.739,6.738-3.894a5.762,5.762,0,0,0,2.739.115,3.5,3.5,0,0,0,1.363-.628c.041-.03.077-.06.111-.09-.055-.035-.111-.064-.164-.092a2.518,2.518,0,0,0-.72-.253l.895-.265h.014s3.179-.295,5.248-.412h.014c.615-.032,1.136-.053,1.444-.044a8.809,8.809,0,0,0,4.131-1.252c.114-.3,1.326,0,1.326,0l1.061-.419c1.061-.417,1.667-.985,1.667-1.4s.947-.872.947-.872a9.018,9.018,0,0,1,2.144-2.2c.761-.6,1.551-1.128,2.137-1.5a44.186,44.186,0,0,1,.908-4.428,5.757,5.757,0,0,1,2.1-2.7l.164-.11a12.053,12.053,0,0,0-.5-1.685,1.3,1.3,0,0,0-.055-.138c-.045-.108-.093-.214-.141-.313l-.07-.138c-.116.023-.227.044-.35.06a7.785,7.785,0,0,1-8.664-5.669s0,0,0-.014a7.89,7.89,0,0,1-.273-2.071,7.671,7.671,0,0,1,.259-1.989h0c.034-.138.075-.274.118-.41a.369.369,0,0,1,.016-.046c.02-.062.041-.127.064-.189a7.89,7.89,0,0,1-1.015.09h-.227a4.748,4.748,0,0,1-1.9-.32h0a2.567,2.567,0,0,1-.42-.23.054.054,0,0,1-.018-.014,2.136,2.136,0,0,1-.468-.375,2.447,2.447,0,0,0,.924-1.63,3.038,3.038,0,0,1,.273-1.457,2.07,2.07,0,0,1,.531-.46,34.08,34.08,0,0,0,3.259-2.969,6.333,6.333,0,0,1,3.883-1.887c1.971-.062,3.706,1.328,5.659,1.59a15.12,15.12,0,0,1,1.8.2,6.17,6.17,0,0,1,1.828.939,4.607,4.607,0,0,1,1.3,1.123,3.991,3.991,0,0,1,.531,1.287,14.4,14.4,0,0,1,.454,2.948c.052,1.043,0,2.092.109,3.128a5.412,5.412,0,0,0,.872,2.516h.03a3.444,3.444,0,0,0,.282.35c-.193.062-.386.117-.584.166a9.094,9.094,0,0,1-1,.2,2.868,2.868,0,0,1-.466.039,1.37,1.37,0,0,1-.322-.03l.2.136.554.377h0l.209.14.42.283c.1-.283.227-.359.379-.341.309-.295.77.343.77.343a4.576,4.576,0,0,0,1.64,1.434,12.906,12.906,0,0,0,1.165.617c8.487,5.126,7.949,12.794,8.448,13.4s.531,2.808.531,2.808,1.251,7.478,1.817,8.125.036.872.529,1.595a6,6,0,0,1,.379,2.656s.341,4.555,1.553,5.542c1.088.886,2.541,8.341,2.83,9.865Z" transform="translate(-20.517 -333.446)" fill="url(#linear-gradient)"/>
    <path id="Path_46" data-name="Path 46" d="M200.863,556.44s-1.179,1.88-4.517,1.015-7.756,2.407-6.5,4.023,9.389-.46,9.389-.46l3.118-.64-.2-2.631Z" transform="translate(-22.645 -457.054)" fill="#d38884"/>
    <path id="Path_47" data-name="Path 47" d="M200.863,556.44s-1.179,1.88-4.517,1.015-7.756,2.407-6.5,4.023,9.389-.46,9.389-.46l3.118-.64-.2-2.631Z" transform="translate(-22.645 -457.054)" opacity="0.1"/>
    <path id="Path_48" data-name="Path 48" d="M235.917,555.746l-1.447-.076-.89.262s2.821.414,2.044,4.288l3.041-.186Z" transform="translate(-56.667 -456.386)" fill="#a36468"/>
    <path id="Path_49" data-name="Path 49" d="M235.917,555.746l-1.447-.076-.89.262s2.821.414,2.044,4.288l3.041-.186Z" transform="translate(-56.667 -456.386)" opacity="0.1"/>
    <path id="Path_50" data-name="Path 50" d="M258.1,518.36s-3.97,2.3-5.085,4.214c0,0-.927.46-.927.865s-.6.976-1.633,1.381l-1.04.414s-1.188-.3-1.3,0a8.555,8.555,0,0,1-4.045,1.241c-1.338-.037-6.568.46-6.568.46a4.728,4.728,0,0,1,2.634,5.227l12.359-.525,4.674-1.054,2.748-2.783Z" transform="translate(-59.701 -427.501)" fill="#444053"/>
    <path id="Path_51" data-name="Path 51" d="M258.1,518.36s-3.97,2.3-5.085,4.214c0,0-.927.46-.927.865s-.6.976-1.633,1.381l-1.04.414s-1.188-.3-1.3,0a8.555,8.555,0,0,1-4.045,1.241c-1.338-.037-6.568.46-6.568.46a4.728,4.728,0,0,1,2.634,5.227l12.359-.525,4.674-1.054,2.748-2.783Z" transform="translate(-59.701 -427.501)" opacity="0.1"/>
    <path id="Path_52" data-name="Path 52" d="M202.877,570.31l-1.749-.034-2.044-.044s-9.652.753-9.463-2.375,7.613-4.226,8.646-3.328a10.625,10.625,0,0,0,3.422,1.45c.263.071.425.111.425.111Z" transform="translate(-22.635 -463.211)" fill="#d38884"/>
    <path id="Path_53" data-name="Path 53" d="M241.122,576.195l-1.749-.035c-.7-2.428.111-3.765.57-4.29.263.071.425.11.425.11Z" transform="translate(-60.88 -469.131)" opacity="0.1"/>
    <path id="Path_54" data-name="Path 54" d="M242.75,575.389l-1.817.129-.863.06c-1.188-3.535.731-4.928.731-4.928h.568l.929.113Z" transform="translate(-61.384 -468.204)" fill="#a36468"/>
    <path id="Path_55" data-name="Path 55" d="M335.075,458.856,332.922,463s-.329-4.2-1.288-6.173a1.742,1.742,0,0,0-.865-.974c-.908-.29,4.315-6.092,4.315-6.092a20.741,20.741,0,0,1,2.4,1.535c1.347.921,2.968,2.044,4.058,2.762C343.609,455.394,335.075,458.856,335.075,458.856Z" transform="translate(-131.728 -373.356)" fill="#d38884"/>
    <path id="Path_56" data-name="Path 56" d="M327.241,489.62a5.862,5.862,0,0,0-2.212,2.78,46.985,46.985,0,0,0-.929,4.626s.781,7.107,1.188,7.446,1.953,7.446,1.953,7.446l1.5-1.015-1.967-8.951S328.081,490.451,327.241,489.62Z" transform="translate(-126.652 -405.314)" fill="#444053"/>
    <path id="Path_57" data-name="Path 57" d="M327.241,489.62a5.862,5.862,0,0,0-2.212,2.78,46.985,46.985,0,0,0-.929,4.626s.781,7.107,1.188,7.446,1.953,7.446,1.953,7.446l1.5-1.015-1.967-8.951S328.081,490.451,327.241,489.62Z" transform="translate(-126.652 -405.314)" opacity="0.1"/>
    <path id="Path_58" data-name="Path 58" d="M323.69,340.22h-8.65l1.4-13.83h7.249Z" transform="translate(-115.574 -239.742)" fill="#a36468"/>
    <path id="Path_59" data-name="Path 59" d="M282.531,679.24h.1l-.2.076Z" transform="translate(-94.441 -554.206)" fill="#67647e"/>
    <path id="Path_60" data-name="Path 60" d="M263.522,640.422l-1.692.658-.227.085-6.091,2.373-2.323.9-3.161,1.231h-1.29c-4-.012-7.987-.1-11.948-.311.768-1.705,2.11-4.435,3.2-5.317.854-.69,6.963-1.436,12.6-2,.7-.069,1.4-.136,2.076-.2l.161-.016c2.239-.207,4.265-.375,5.678-.49l.227-.018,1.776-.138L262.7,637l.227.985.189.787Z" transform="translate(-59.153 -521.688)" fill="#67647e"/>
    <path id="Path_61" data-name="Path 61" d="M282.531,679.24h.1l-.2.076Z" transform="translate(-94.441 -554.206)" opacity="0.1"/>
    <path id="Path_62" data-name="Path 62" d="M263.522,640.422l-1.692.658-.227.085-6.091,2.373-2.323.9-3.161,1.231h-1.29c-4-.012-7.987-.1-11.948-.311.768-1.705,2.11-4.435,3.2-5.317.854-.69,6.963-1.436,12.6-2,.7-.069,1.4-.136,2.076-.2l.161-.016c2.239-.207,4.265-.375,5.678-.49l.227-.018,1.776-.138L262.7,637l.227.985.189.787Z" transform="translate(-59.153 -521.688)" opacity="0.1"/>
    <path id="Path_63" data-name="Path 63" d="M282.531,679.24h.1l-.2.076Z" transform="translate(-94.441 -554.206)" fill="#67647e"/>
    <path id="Path_64" data-name="Path 64" d="M315.065,679.24a.331.331,0,0,1-.025.076h0a.2.2,0,0,1,.027-.076Z" transform="translate(-119.646 -554.206)" fill="#67647e"/>
    <path id="Path_65" data-name="Path 65" d="M335.393,507.276h-.168l-.025-.076h.168Z" transform="translate(-131.158 -382.168)" fill="#67647e"/>
    <path id="Path_66" data-name="Path 66" d="M305.631,641.32l-.141,4.737v.281l-.07,2.345-1.66.055h-.241q-3.543.115-7.079.177h-1.4l-1.054.014q-1.642.016-3.277.018H289.4c1.181-.741,2.709-1.558,4.354-2.375.738-.368,1.5-.734,2.271-1.1,2.044-.962,4.113-1.871,5.8-2.6l.216-.092c.654-.281,1.247-.532,1.753-.743,1.095-.46,1.79-.736,1.837-.755Z" transform="translate(-99.827 -524.99)" fill="#67647e"/>
    <path id="Path_67" data-name="Path 67" d="M293.133,553.587A8.661,8.661,0,0,0,294.7,556.1c.111.11.3.212.4.09a.293.293,0,0,0,.043-.17,2.214,2.214,0,0,0-.409-1.174c-.227-.354-.5-.677-.7-1.045s-.434-1.077-.888-1.174C292.568,552.5,293,553.315,293.133,553.587Z" transform="translate(-102.494 -453.931)" opacity="0.1"/>
    <path id="Path_68" data-name="Path 68" d="M337.473,451.265c-.032.115-.066.23-.1.341a7.687,7.687,0,0,1-5.737,5.19,1.742,1.742,0,0,0-.865-.974c-.908-.29,4.315-6.092,4.315-6.092A24.142,24.142,0,0,1,337.473,451.265Z" transform="translate(-131.726 -373.063)" opacity="0.1"/>
    <path id="Path_69" data-name="Path 69" d="M309.819,420.877a7.645,7.645,0,1,1-7.644-7.747,7.577,7.577,0,0,1,5.41,2.264A7.784,7.784,0,0,1,309.819,420.877Z" transform="translate(-103.793 -344.554)" fill="#d38884"/>
    <path id="Path_70" data-name="Path 70" d="M336.462,496.79s-1.59,1.956-1.335,3.236h1.928l1.41-1.611Z" transform="translate(-135.155 -409.96)" fill="#67647e"/>
    <path id="Path_71" data-name="Path 71" d="M345.364,460.9l-6.064,8.449s1.558,2.258,2.3,2.371,4.978-9.993,4.978-9.993Z" transform="translate(-138.404 -382.03)" opacity="0.1"/>
    <path id="Path_72" data-name="Path 72" d="M345.7,460.24,339.63,468.7s1.558,2.256,2.3,2.368,4.978-9.991,4.978-9.991Z" transform="translate(-138.659 -381.51)" fill="#a36468"/>
    <path id="Path_73" data-name="Path 73" d="M333.725,507.26a54.082,54.082,0,0,1-.6,5.678c-.3.941,0,9.588,0,9.588l2.784-1.165-.484-13.275Z" transform="translate(-133.53 -418.827)" fill="#67647e"/>
    <path id="Path_74" data-name="Path 74" d="M335.368,507.2l.025.076h-.168l-.025-.076Z" transform="translate(-131.158 -382.168)" opacity="0.1"/>
    <path id="Path_75" data-name="Path 75" d="M439.4,679.55Z" transform="translate(-215.793 -554.444)" opacity="0.1"/>
    <path id="Path_76" data-name="Path 76" d="M360.835,506.67l-.139.23c-.086.143-.179.32-.3.545a.177.177,0,0,0-.016.028c-.168.315-.368.7-.57,1.123-6.813.244-13.626.568-20.421.8l-1.66.055h-.241l-.713-2.44v-.025l-.075-.258-.454-1.533-.454-1.558-.47-1.662-.173-.6-.045-.152-.74-2.555-1-3.468.325-3.31h0l.023-.251.293-2.964.041-.879h0l.023-.46V487.2h0l.05-1.068.15-3.176.077-1.625h0l.014-.246h0l.154-3.261.438-1.333.227-.663.5-1.54.109-.38h0c.159-.578.479-1.719.779-2.817h0l.027-.094h0l.02-.071.213-.78.266-1c.1-.384.166-.658.182-.753a14.814,14.814,0,0,1,1.017-1.841h0c1.136-1.9,2.843-4.7,3.039-5.643a.1.1,0,0,0,0-.023,1.164,1.164,0,0,1,.048-.168c.093-.281.227-.357.368-.338a.451.451,0,0,1,.179.071,1.437,1.437,0,0,1,.354.345,4.542,4.542,0,0,0,1.606,1.42l.123.071.073.044c.522.3.945.495.945.495,8.312,5.077,7.794,12.675,8.276,13.275s.52,2.785.52,2.785,1.224,7.409,1.78,8.055.039.865.52,1.581a5.926,5.926,0,0,1,.37,2.608s.334,4.511,1.522,5.489S360.835,506.67,360.835,506.67Z" transform="translate(-133.818 -385.717)" opacity="0.1"/>
    <path id="Path_77" data-name="Path 77" d="M361.823,506.319l-.1.175h0c-.079.143-.207.368-.359.651l-.016.032c-.173.324-.377.718-.579,1.151h-.191c-6.813.244-13.626.568-20.421.8l-1.66.055-.711-2.449v-.025l-.075-.258-.47-1.611-.454-1.565-.454-1.563-.179-.626h0l-.777-2.688-1.027-3.542.284-2.879.039-.384.313-3.271h0l.12-2.55.148-3.082.039-.808.043-.934.018-.394.148-3.079.438-1.33.188-.573.441-1.346.093-.285s.425-1.512.836-3.01c.016-.055.032-.111.045-.166.036-.129.07-.258.107-.384h0c.036-.129.07-.255.1-.382.116-.419.227-.81.3-1.132.111-.421.186-.727.2-.826a13.61,13.61,0,0,1,1.038-1.873,42.041,42.041,0,0,0,2.973-5.441,1.736,1.736,0,0,0,.045-.168h0a.883.883,0,0,1,.2-.46c.3-.3.756.341.756.341a4.519,4.519,0,0,0,1.606,1.42,11.984,11.984,0,0,0,1.136.61c8.312,5.077,7.794,12.675,8.276,13.278a7.2,7.2,0,0,1,.52,2.783s1.224,7.409,1.78,8.055.039.865.52,1.579a6.024,6.024,0,0,1,.37,2.633s.334,4.513,1.522,5.492S361.823,506.319,361.823,506.319Z" transform="translate(-134.584 -385.438)" fill="#444053"/>
    <path id="Path_78" data-name="Path 78" d="M350.3,462.539a17.868,17.868,0,0,0-2.5,4.833s-1.3,1.356-1.783,1.28.454,1.015.454,1.015l-5.1,7.167.724-2.2s1.522-5.416,1.59-5.9,3.763-6.078,4.056-7.485c.227-1.125.954-.113.954-.113A4.545,4.545,0,0,0,350.3,462.539Z" transform="translate(-140.005 -382.136)" opacity="0.1"/>
    <path id="Path_79" data-name="Path 79" d="M350.3,461.847a17.936,17.936,0,0,0-2.5,4.822s-1.3,1.353-1.783,1.28.454,1.015.454,1.015l-5.1,7.167.724-2.2s1.522-5.416,1.59-5.906,3.763-6.076,4.056-7.482c.227-1.128.954-.113.954-.113A4.5,4.5,0,0,0,350.3,461.847Z" transform="translate(-140.005 -381.58)" fill="#444053"/>
    <path id="Path_80" data-name="Path 80" d="M352.671,499.594c.039,1.643-2.337,3.887-2.448,4.019s-7.385,6.214-7.385,6.214l-5.223,4.06a4.412,4.412,0,0,1-2.044.957l.357-3.632.352-7.365a8.406,8.406,0,0,0,1.624-2.2c.036-.638,1.363-1.317,1.363-1.317s.929-.789.779-1.24a10.106,10.106,0,0,1,.493-2.612c.334-6.131,6.568-6.732,6.568-6.732a42.476,42.476,0,0,1,5.121,2.481C354.34,493.508,352.635,497.953,352.671,499.594Z" transform="translate(-135.524 -405.595)" opacity="0.1"/>
    <path id="Path_81" data-name="Path 81" d="M246.055,575.389l-1.817.129c-.768-1.323.288-4.868.288-4.868h.148l.929.113Z" transform="translate(-64.69 -468.201)" opacity="0.1"/>
    <path id="Path_82" data-name="Path 82" d="M276.887,488.13s-6.234.6-6.568,6.732a10.109,10.109,0,0,0-.484,2.6c.148.451-.779,1.241-.779,1.241s-1.335.677-1.363,1.316-3.407,4.129-3.407,4.129a6.756,6.756,0,0,1-4.674,1.8,10.174,10.174,0,0,0-4.787,1.183s-1.59-1.128-2.748-.789-6.79.789-6.79.789-1.5,5.027.37,5.342c.227.037,18.6.677,18.6.677s1.256.6,3.148-.865,5.223-4.062,5.223-4.062,7.267-6.092,7.385-6.214,2.5-2.378,2.448-4.019,1.672-6.081-.454-7.365A42.551,42.551,0,0,0,276.887,488.13Z" transform="translate(-65.288 -404.316)" fill="#444053"/>
    <path id="Path_83" data-name="Path 83" d="M311.063,420.8a7.826,7.826,0,0,1-.375,2.4,3.238,3.238,0,0,1-.282-.394q-.531-.829-1.065-1.657a4.464,4.464,0,0,0-1.083-1.293,1.5,1.5,0,0,0-1.59-.17,1.619,1.619,0,0,0-.681,1.291,14.843,14.843,0,0,0,.039,1.524.849.849,0,0,1-.139.55.884.884,0,0,1-.586.23l-.681.094a.482.482,0,0,1-.379-.024.493.493,0,0,1-.248-.292c-.566-1.038-.956-2.327-2.017-2.826-.654-.308-1.517-.288-1.937-.882a1.943,1.943,0,0,1-.164-1.448,11.556,11.556,0,0,1,.4-1.639c.12-.377.388-1.13-.207-1.206a1.563,1.563,0,0,0-1.167.69,6.2,6.2,0,0,0-.4,1.073,2.541,2.541,0,0,1-1.4,1.314,3.96,3.96,0,0,1-.963.265,7.638,7.638,0,0,1,8.465-5.278,7.717,7.717,0,0,1,6.456,7.658Z" transform="translate(-105.037 -344.267)" opacity="0.1"/>
    <path id="Path_84" data-name="Path 84" d="M285.739,402.13a6.346,6.346,0,0,0-.4,1.07,2.544,2.544,0,0,1-1.394,1.314,5.3,5.3,0,0,1-1.914.345,3.56,3.56,0,0,1-2.921-.953,2.431,2.431,0,0,0,.908-1.611,3.022,3.022,0,0,1,.268-1.445,2.051,2.051,0,0,1,.518-.444A33.951,33.951,0,0,0,284,397.465a6.2,6.2,0,0,1,3.8-1.871c1.928-.06,3.634,1.316,5.541,1.577a14.956,14.956,0,0,1,1.762.2,5.978,5.978,0,0,1,1.792.921,4.6,4.6,0,0,1,1.279,1.114,4.037,4.037,0,0,1,.52,1.275,14.414,14.414,0,0,1,.454,2.921c.052,1.031,0,2.071.109,3.1a4.945,4.945,0,0,0,1.124,2.831,9.885,9.885,0,0,1-1.547.361,1.59,1.59,0,0,1-.983-.078,1.747,1.747,0,0,1-.6-.656l-1.065-1.657a4.463,4.463,0,0,0-1.083-1.294,1.5,1.5,0,0,0-1.59-.17,1.625,1.625,0,0,0-.681,1.291,14.859,14.859,0,0,0,.039,1.524.849.849,0,0,1-.139.55.886.886,0,0,1-.588.23l-.681.094a.482.482,0,0,1-.379-.024.493.493,0,0,1-.248-.292c-.565-1.04-.956-2.327-2.017-2.826-.654-.308-1.517-.288-1.937-.882a1.943,1.943,0,0,1-.164-1.448,11.554,11.554,0,0,1,.4-1.639c.12-.377.388-1.13-.207-1.208A1.565,1.565,0,0,0,285.739,402.13Z" transform="translate(-91.872 -330.669)" fill="#444053"/>
    <path id="Path_85" data-name="Path 85" d="M373.411,502.275a3.284,3.284,0,0,1,1.717.09,6.206,6.206,0,0,0-4.958.442C370.286,503.076,372.966,502.337,373.411,502.275Z" transform="translate(-162.271 -413.982)" opacity="0.1"/>
    <path id="Path_86" data-name="Path 86" d="M374.444,508.943a10.489,10.489,0,0,0,4.163-.168,15.051,15.051,0,0,0-3.5-.26,7.9,7.9,0,0,0-2.787-.182c-.379.1-1.776.75-1.681,1.227A7.457,7.457,0,0,1,374.444,508.943Z" transform="translate(-162.635 -418.89)" opacity="0.1"/>
    <path id="Path_87" data-name="Path 87" d="M371.1,523.9a2.072,2.072,0,0,1,.868.092,13.1,13.1,0,0,0,3.2.357,3.314,3.314,0,0,0,2.307-.69Z" transform="translate(-162.99 -430.991)" opacity="0.1"/>
    <path id="Path_88" data-name="Path 88" d="M351.29,553.513a6.325,6.325,0,0,0,3.123.575,13.623,13.623,0,0,0,3.143-.612,2.1,2.1,0,0,0,1.215-.707Z" transform="translate(-147.674 -453.932)" opacity="0.1"/>
    <path id="Path_89" data-name="Path 89" d="M393.156,559.368a16.526,16.526,0,0,0,6.931,2.175q-1.846-.75-3.72-1.42a26.659,26.659,0,0,0-3.918-1.063A1.978,1.978,0,0,1,393.156,559.368Z" transform="translate(-179.497 -458.944)" opacity="0.1"/>
    <path id="Path_90" data-name="Path 90" d="M404.046,552.277a5.781,5.781,0,0,0,1.292.071.732.732,0,0,0,.631-.23,10.944,10.944,0,0,1-2.886-.43c-.27-.064-.756-.216-.983-.053A6.186,6.186,0,0,0,404.046,552.277Z" transform="translate(-186.957 -452.954)" opacity="0.1"/>
    <path id="Path_91" data-name="Path 91" d="M431.283,631.074a13.033,13.033,0,0,0,1.735,2.532,12.79,12.79,0,0,0,1.3,1.132,28.32,28.32,0,0,0-3.048-6.276c-.341-.479-.849-1.165-1.469-1.252-.177.532.27,1.473.486,1.972A19.076,19.076,0,0,0,431.283,631.074Z" transform="translate(-208.343 -514.151)" opacity="0.1"/>
    <path id="Path_92" data-name="Path 92" d="M327.037,570.027a1.582,1.582,0,0,0,.143,1.077.767.767,0,0,0,.431.3,5.279,5.279,0,0,1-.254-1.257c-.05-.3,0-.865-.211-1.089C327.091,569.378,327.071,569.7,327.037,570.027Z" transform="translate(-128.9 -466.808)" opacity="0.1"/>
    <path id="Path_93" data-name="Path 93" d="M331.681,569.418a2.451,2.451,0,0,0,1.136,1.558,17.7,17.7,0,0,1-.872-1.7c-.111-.175-.241-.426-.454-.46Q331.571,569.124,331.681,569.418Z" transform="translate(-132.364 -466.609)" opacity="0.1"/>
    <path id="Path_94" data-name="Path 94" d="M318.621,541.513a2.8,2.8,0,0,1-2.248.288c-.17-.051-.568-.23-.472-.483s.556-.078.745-.055l.988.127C317.815,541.411,318.473,541.6,318.621,541.513Z" transform="translate(-120.3 -444.782)" opacity="0.1"/>
    <path id="Path_95" data-name="Path 95" d="M313.21,549.593c.466-.06.883.267,1.319.444a3.971,3.971,0,0,0,1.5.2.83.83,0,0,0,.7-.23A9.7,9.7,0,0,0,313.21,549.593Z" transform="translate(-118.232 -451.365)" opacity="0.1"/>
    <path id="Path_96" data-name="Path 96" d="M319.97,317.58h.075l.556,2.028-.631.681Z" transform="translate(-119.383 -232.254)" fill="#a36468"/>
    <g id="Group_29" data-name="Group 29" transform="translate(187.269 70.05)" opacity="0.1">
      <path id="Path_97" data-name="Path 97" d="M283.4,419.76a4.811,4.811,0,0,0-.1,1,2.236,2.236,0,0,0,.061-.322C283.388,420.218,283.386,419.986,283.4,419.76Z" transform="translate(-282.38 -419.558)"/>
      <path id="Path_98" data-name="Path 98" d="M287.046,419.347a.4.4,0,0,1,.286.148.409.409,0,0,1,.087.313c.107-.382.166-.852-.3-.921a1.556,1.556,0,0,0-1.167.7,6.5,6.5,0,0,0-.4,1.073,2.537,2.537,0,0,1-1.394,1.314,5.3,5.3,0,0,1-1.914.345,3.829,3.829,0,0,1-2.725-.75,2.325,2.325,0,0,1-.27.249,3.562,3.562,0,0,0,2.923.953,5.3,5.3,0,0,0,1.912-.345,2.548,2.548,0,0,0,1.4-1.314,6.336,6.336,0,0,1,.4-1.07A1.545,1.545,0,0,1,287.046,419.347Z" transform="translate(-279.25 -418.882)"/>
      <path id="Path_99" data-name="Path 99" d="M345.941,442.329a1.591,1.591,0,0,1-.983-.078,1.768,1.768,0,0,1-.6-.656q-.531-.829-1.065-1.657a4.427,4.427,0,0,0-1.081-1.293,1.492,1.492,0,0,0-1.59-.17,1.655,1.655,0,0,0-.693,1.291v.062a1.455,1.455,0,0,1,.62-.9,1.5,1.5,0,0,1,1.59.17,4.5,4.5,0,0,1,1.083,1.294q.531.829,1.065,1.657a1.729,1.729,0,0,0,.6.656,1.584,1.584,0,0,0,.981.078,9.958,9.958,0,0,0,1.549-.361,3.366,3.366,0,0,1-.277-.348,9.641,9.641,0,0,1-1.2.258Z" transform="translate(-326.149 -433.841)"/>
      <path id="Path_100" data-name="Path 100" d="M318.592,437.225a.9.9,0,0,1-.586.23l-.681.094a.482.482,0,0,1-.379-.024.493.493,0,0,1-.248-.292c-.565-1.04-.956-2.327-2.017-2.826-.654-.308-1.515-.288-1.935-.882a1.713,1.713,0,0,1-.2-1.206c-.011.071-.027.14-.039.209a1.944,1.944,0,0,0,.166,1.448c.42.594,1.283.573,1.935.881,1.063.5,1.453,1.786,2.019,2.826a.478.478,0,0,0,.627.331l.681-.094a.884.884,0,0,0,.586-.23.835.835,0,0,0,.139-.55h0A.693.693,0,0,1,318.592,437.225Z" transform="translate(-304.907 -429.227)"/>
    </g>
    <path id="Path_101" data-name="Path 101" d="M748.446,615.895l-1.456-.2V593.91l.3.092.908.283v2.1l.011.946.02,1.947v2.656l.109,9.807V612l.039,3.452v.053Z" transform="translate(-453.604 -488.515)" fill="#eaecf0"/>
    <path id="Path_102" data-name="Path 102" d="M753.63,617.249l-.811-.115v-.446l-.039-3.452v-.262l-.109-9.807V600.51l-.02-1.947-.011-.946v-2.1h.874v2.815l.018,2.1v2.226h0l.084,10.293v.265l.027,3.422v.055Z" transform="translate(-457.972 -489.754)" fill="#d3dae1"/>
    <path id="Path_103" data-name="Path 103" d="M757,695.27Z" transform="translate(-461.343 -566.546)" fill="#d3dae1"/>
    <path id="Path_104" data-name="Path 104" d="M1141.425,582.18v18.8q-.647.46-1.326.9l-.018-15.651v-1.662Z" transform="translate(-757.527 -479.485)" fill="#eaecf0"/>
    <path id="Path_105" data-name="Path 105" d="M1146.945,581v18.344c-.309.251-.625.492-.945.73v-18.8Z" transform="translate(-762.103 -478.576)" fill="#d3dae1"/>
    <path id="Path_106" data-name="Path 106" d="M1051.511,636.179c-.559.115-1.12.23-1.681.329l-.02-17.011v-.737l1.619-.69v1.56Z" transform="translate(-687.758 -507.114)" fill="#eaecf0"/>
    <path id="Path_107" data-name="Path 107" d="M1058.128,615.73v18.413c-.354.078-.709.152-1.063.23l-.075-16.541v-1.56l.107-.051h0Z" transform="translate(-693.307 -505.313)" fill="#d3dae1"/>
    <path id="Path_108" data-name="Path 108" d="M632.353,606.879l-1.51-.154-.193-19.181v-.914h1.483v1.043Z" transform="translate(-363.657 -482.91)" fill="#eaecf0"/>
    <path id="Path_109" data-name="Path 109" d="M638.463,607l-1.136-.122-.227-19.207V586.63h1.147v1.144Z" transform="translate(-368.644 -482.91)" fill="#d3dae1"/>
    <path id="Path_110" data-name="Path 110" d="M1039.45,444.185l1.038-.495v2.322l-1.011.343Z" transform="translate(-675.672 -331.527)" opacity="0.1"/>
    <path id="Path_111" data-name="Path 111" d="M1124.391,408.95V412.5l-.942.32-1.347.453,0-1.662,1.349-2.391Z" transform="translate(-739.552 -304.274)" opacity="0.1"/>
    <path id="Path_112" data-name="Path 112" d="M1060.141,379.27v9.839l-21.034,7.1-.136-10.523Z" transform="translate(-675.301 -281.662)" fill="#d48a9b"/>
    <path id="Path_113" data-name="Path 113" d="M611.46,358.47l27.643-5.33,90.617,6.014-21.171,6.421Z" transform="translate(-344.881 -260.763)" fill="#efc6cd"/>
    <path id="Path_114" data-name="Path 114" d="M615.28,414.6l.009,1.142-1.145-.1-1.487-.129-.007-.911Z" transform="translate(-345.667 -308.54)" opacity="0.1"/>
    <path id="Path_115" data-name="Path 115" d="M731.131,423.6l-.874-.078-1.226-.106V421.88l1.213.373h.877Z" transform="translate(-435.645 -314.303)" opacity="0.1"/>
    <path id="Path_116" data-name="Path 116" d="M611.46,376.3v9.156l97.226,8.472-.136-10.523Z" transform="translate(-344.881 -279.363)" fill="#d48a9b"/>
    <path id="Path_117" data-name="Path 117" d="M907.68,407.98h-12.7v-4.67l12.7.907Z" transform="translate(-563.957 -299.853)" fill="#d48a9b"/>
    <path id="Path_118" data-name="Path 118" d="M907.68,407.98h-12.7v-4.67l12.7.907Z" transform="translate(-563.957 -299.853)" opacity="0.1"/>
    <path id="Path_119" data-name="Path 119" d="M819.87,398.86v7.379L868.618,410V402.14L849.6,401.047l-1.889,1.708-7.753-.545-2.764-2.051Z" transform="translate(-505.96 -296.738)" opacity="0.1"/>
    <path id="Path_120" data-name="Path 120" d="M818.68,397.67v7.381l48.748,3.756V400.95l-19.013-1.093-1.887,1.71-7.756-.548-2.764-2.051Z" transform="translate(-505.04 -295.8)" fill="#fff"/>
    <path id="Path_121" data-name="Path 121" d="M682.3,389.06l11.53.822-.134,3.712h-7.529l-5.035-2Z" transform="translate(-398.618 -288.624)" fill="#d48a9b"/>
    <path id="Path_122" data-name="Path 122" d="M682.3,389.06l11.53.822-.134,3.712h-7.529l-5.035-2Z" transform="translate(-398.618 -288.624)" opacity="0.1"/>
    <path id="Path_123" data-name="Path 123" d="M618.59,384.61v6.629l44.229,3.554v-7.038l-17.058-1.026-1.821,1.367-6.877-.41-2.832-1.777Z" transform="translate(-350.288 -285.445)" opacity="0.1"/>
    <path id="Path_124" data-name="Path 124" d="M617.4,383.42v6.629l44.229,3.554v-7.038l-17.058-1.024-1.819,1.365-6.879-.41-2.832-1.777Z" transform="translate(-349.368 -284.507)" fill="#fff"/>
    <path id="Path_125" data-name="Path 125" d="M1002.875,383.53l6.2.412L998.8,387.058l-5.233-.382Z" transform="translate(-640.212 -284.214)" opacity="0.1"/>
    <path id="Path_126" data-name="Path 126" d="M1002.875,382.35l6.2.41L998.8,385.876l-5.233-.382Z" transform="translate(-640.212 -283.285)" fill="#fff"/>
    <path id="Path_127" data-name="Path 127" d="M1049.24,557.344c.245-.108.506.092.768.143.148.03.3,0,.454.03.3.041.6.246.895.143Z" transform="translate(-687.318 -457.458)" fill="#d3dae1"/>
    <path id="Path_128" data-name="Path 128" d="M1047.83,558.158c.243-.106.5.094.765.145.15.028.3,0,.454.028.3.041.6.249.895.145Z" transform="translate(-686.228 -458.099)" fill="#d3dae1"/>
    <path id="Path_129" data-name="Path 129" d="M1044.59,559.8c.243-.106.5.092.765.143.15.03.3,0,.454.03.3.041.606.249.895.143Z" transform="translate(-683.724 -459.389)" fill="#d3dae1"/>
    <path id="Path_130" data-name="Path 130" d="M835.65,368.55l13.824.918-2.946,4.288-15.2-1.646Z" transform="translate(-514.751 -272.508)" opacity="0.1"/>
    <path id="Path_131" data-name="Path 131" d="M834.452,367.36l13.824.916-2.946,4.29-15.2-1.646Z" transform="translate(-513.823 -271.571)" fill="#3a3768"/>
    <path id="Path_132" data-name="Path 132" d="M839.018,368.73l12.057.748-2.569,3.494L835.25,371.63Z" transform="translate(-517.779 -272.599)" fill="#d5e1f4"/>
    <path id="Path_133" data-name="Path 133" d="M757,695.27Z" transform="translate(-461.343 -566.546)" fill="#3a3768"/>
    <path id="Path_134" data-name="Path 134" d="M757,695.27Z" transform="translate(-461.343 -566.546)" opacity="0.1"/>
    <path id="Path_135" data-name="Path 135" d="M756.54,695.27Z" transform="translate(-460.987 -566.546)" fill="#3a3768"/>
    <path id="Path_136" data-name="Path 136" d="M701.136,585.482a1.131,1.131,0,0,1-.011.2,1.347,1.347,0,0,1-.018.173,3.93,3.93,0,0,1-.329,1.172h0c-5.712-.651-11.437-1.434-17.169-2.237l-.811-.115-1.456-.2-1.226-.173h0a29.165,29.165,0,0,1-4.006-.38,20.488,20.488,0,0,1-2.475-.529c-3.634-.5-7.288-.99-10.931-1.432l-.475-.058c.086-.391.159-.628.159-.628s.781-3.112,1.431-6.589c.143-.755.279-1.524.4-2.285.1-.61.182-1.213.254-1.793.041-.32.075-.633.1-.939.016-.152.03-.3.041-.46s.025-.327.036-.486.016-.3.023-.444v-.216c0-.311,0-.635-.011-.969a28.9,28.9,0,0,0-.772-4.928c-.064-.276-.129-.552-.2-.822-.02-.088-.043-.173-.066-.258-.734-2.879-1.59-5.231-1.59-5.231a.262.262,0,0,1,0-.039.14.14,0,0,0,0-.028.566.566,0,0,0,0-.058v-.41a3.569,3.569,0,0,1,.123-.714q.037-.124.086-.244a1.5,1.5,0,0,1,1.022-.958h0c.643-.168,1.615,0,3.082.881a5.3,5.3,0,0,1,.681.474,2.881,2.881,0,0,1,.318.279c1.681,1.586,2.575,4.2,3.052,6.592.018.085.034.17.05.256.057.295.1.582.148.865.077.5.138.976.184,1.42,0,.12.025.23.036.352s.023.23.03.341c.03.359.05.69.064.971.039.746.032,1.2.032,1.2v.023a.639.639,0,0,1-.011.1.045.045,0,0,0,0,.018v.207q-.014.145-.034.338c-.02.2-.043.43-.07.69-.018.193-.041.4-.064.624-.05.46-.1.994-.164,1.556-.014.106-.025.212-.036.318-.052.481-.107.983-.164,1.489h0c-.061.575-.129,1.151-.2,1.719-.016.124-.032.249-.045.371-.168,1.381-.336,2.635-.472,3.415a3.307,3.307,0,0,0-.045.35,1.086,1.086,0,0,0,0,.12,2.391,2.391,0,0,0,0,.313,2.621,2.621,0,0,0,2.207,2.3l9.518-.191,1.413-.028.822-.016,7.42-.15h0l.681-.014,3.69-.074a2.6,2.6,0,0,1,.743.09,11.71,11.71,0,0,1,3.225,1.429,3.806,3.806,0,0,1,.833.737.248.248,0,0,1,.032.037,4.01,4.01,0,0,1,.893,2.154q0,.079,0,.159A2.1,2.1,0,0,1,701.136,585.482Z" transform="translate(-387.95 -457.281)" fill="#3a3768"/>
    <path id="Path_137" data-name="Path 137" d="M756.54,695.27Z" transform="translate(-460.987 -566.546)" opacity="0.1"/>
    <path id="Path_138" data-name="Path 138" d="M701.138,585.417a1.132,1.132,0,0,1-.011.2,1.334,1.334,0,0,1-.018.173,4.069,4.069,0,0,1-.341,1.172c-5.712-.651-11.437-1.434-17.169-2.237l-.811-.115-1.456-.2-1.226-.173h0a29.147,29.147,0,0,1-4.006-.38,20.466,20.466,0,0,1-2.475-.529c-3.634-.5-7.288-.99-10.931-1.432l-.475-.058h0c.086-.405.164-.651.164-.651s.638-2.532,1.245-5.6h0c.043-.212.084-.424.125-.638l.061-.325c.141-.753.277-1.526.4-2.285.1-.61.182-1.213.254-1.793.041-.32.075-.633.1-.939.016-.152.03-.3.041-.46s.025-.327.036-.486.016-.3.023-.444v-.216c0-.311,0-.635-.011-.969a28.663,28.663,0,0,0-.765-4.928q-.1-.419-.2-.822c-.023-.087-.043-.173-.066-.258-.736-2.888-1.59-5.254-1.59-5.254a.079.079,0,0,0,0-.016.14.14,0,0,0,0-.028.566.566,0,0,0,0-.058v-.41a3.577,3.577,0,0,1,.116-.714c.025-.081.052-.163.084-.244a1.509,1.509,0,0,1,1.076-.992,4.392,4.392,0,0,1,3.039.888,5.5,5.5,0,0,1,.708.5h0c.107.09.209.18.309.276,1.667,1.6,2.555,4.207,3.027,6.589.018.085.034.173.05.258.057.292.1.582.148.863.077.5.136.974.182,1.416.011.122.025.242.034.357s.023.23.03.341c.03.359.05.69.064.971.039.746.032,1.2.032,1.2v.122a.045.045,0,0,0,0,.018v.207q-.014.145-.034.338c-.02.2-.043.43-.07.69-.023.191-.043.4-.066.624-.05.46-.1.994-.164,1.556-.014.106-.025.212-.036.318-.052.481-.109.987-.164,1.494h0c-.066.575-.132,1.151-.2,1.717-.016.124-.03.249-.045.371-.166,1.381-.332,2.617-.468,3.392a3.231,3.231,0,0,0-.045.375,1.117,1.117,0,0,0,0,.12,2.391,2.391,0,0,0,0,.313,2.614,2.614,0,0,0,2.207,2.267l9.518-.189,1.41-.03.824-.016,7.433-.147.695-.014,3.677-.074a2.453,2.453,0,0,1,.743.09,11.574,11.574,0,0,1,3.25,1.415,3.758,3.758,0,0,1,.845.75.247.247,0,0,1,.032.037,3.971,3.971,0,0,1,.881,2.163v.159A2.722,2.722,0,0,0,701.138,585.417Z" transform="translate(-387.953 -457.215)" opacity="0.1"/>
    <path id="Path_139" data-name="Path 139" d="M756.54,695.27Z" transform="translate(-460.987 -566.546)" fill="#3a3768"/>
    <path id="Path_140" data-name="Path 140" d="M702.948,586.1l-.375-.044h0c-5.712-.651-11.437-1.434-17.169-2.237l-.811-.115-1.456-.2-1.226-.173h0a29.176,29.176,0,0,1-4.006-.38,20.486,20.486,0,0,1-2.475-.529c-3.634-.5-7.288-.99-10.931-1.432a9.543,9.543,0,0,1,.227-.957s2.157-8.61,2.292-13.188a24.06,24.06,0,0,0-.706-5.593h0c-.064-.279-.127-.555-.2-.826l-.061-.258c-.77-3.027-1.685-5.558-1.685-5.558a3.787,3.787,0,0,1,.052-.937q.021-.125.055-.246a1.883,1.883,0,0,1,.586-.994h0a.3.3,0,0,1,.043-.032c.6-.46,1.669-.493,3.577.64a5.6,5.6,0,0,1,1.065.826c.091.087.182.18.268.274a13.658,13.658,0,0,1,2.773,6.566l.048.255c.05.288.093.571.134.845v.023h0c.052.364.1.711.132,1.043h0a27.812,27.812,0,0,1,.163,2.939s-.089.909-.227,2.219c-.052.513-.114,1.089-.179,1.7v.092l-.034.322c-.116,1.061-.243,2.193-.372,3.243-.014.129-.03.255-.045.38-.145,1.181-.291,2.23-.411,2.914a2.558,2.558,0,0,0,2.157,3.075l8.98-.18,1.408-.028.824-.018h.456l7.122-.143h.681l4.088-.083a2.521,2.521,0,0,1,.743.092,11.634,11.634,0,0,1,3.252,1.413,3.873,3.873,0,0,1,.765.658.373.373,0,0,1,.039.046A4.029,4.029,0,0,1,702.948,586.1Z" transform="translate(-389.747 -456.326)" fill="#3a3768"/>
    <path id="Path_141" data-name="Path 141" d="M954.455,347.05l2.777,6.03h-.466l-3.257-5.959Z" transform="translate(-609.249 -255.617)" fill="#4c4c56"/>
    <path id="Path_142" data-name="Path 142" d="M954.455,347.05l2.777,6.03h-.466l-3.257-5.959Z" transform="translate(-609.249 -255.617)" opacity="0.1"/>
    <path id="Path_143" data-name="Path 143" d="M957.67,373.25h2.778v.631l-2.778.071Z" transform="translate(-612.465 -275.976)" fill="#4c4c56"/>
    <path id="Path_144" data-name="Path 144" d="M957.67,373.25h2.778v.631l-2.778.071Z" transform="translate(-612.465 -275.976)" opacity="0.1"/>
    <path id="Path_145" data-name="Path 145" d="M880.5,417.443V438.5a1.552,1.552,0,0,0,1.542,1.563h34.634a1.523,1.523,0,0,0,1.095-.466,1.564,1.564,0,0,0,.438-1.118l-.393-21.076a1.543,1.543,0,0,0-1.533-1.524H882.042A1.552,1.552,0,0,0,880.5,417.443Z" transform="translate(-556.899 -347.119)" fill="#4c4c56"/>
    <path id="Path_146" data-name="Path 146" d="M880.5,417.443V438.5a1.552,1.552,0,0,0,1.542,1.563h34.634a1.523,1.523,0,0,0,1.095-.466,1.564,1.564,0,0,0,.438-1.118l-.393-21.076a1.543,1.543,0,0,0-1.533-1.524H882.042A1.552,1.552,0,0,0,880.5,417.443Z" transform="translate(-556.899 -347.119)" opacity="0.1"/>
    <path id="Path_147" data-name="Path 147" d="M875,417.443V438.5a1.553,1.553,0,0,0,1.542,1.563h34.634a1.521,1.521,0,0,0,1.094-.466,1.562,1.562,0,0,0,.437-1.118l-.393-21.075a1.543,1.543,0,0,0-1.531-1.524H876.551a1.531,1.531,0,0,0-1.1.454A1.574,1.574,0,0,0,875,417.443Z" transform="translate(-552.648 -347.119)" fill="#4c4c56"/>
    <path id="Path_148" data-name="Path 148" d="M881,423.163V441.7a1.552,1.552,0,0,0,1.542,1.563h32.069a1.543,1.543,0,0,0,1.533-1.554v-18.56a1.543,1.543,0,0,0-1.533-1.551H882.542A1.552,1.552,0,0,0,881,423.163Z" transform="translate(-557.286 -351.519)" fill="#6c63ff"/>
    <path id="Path_149" data-name="Path 149" d="M924.14,344.556l3.045,5.945h6.881l-3.441-6.8Z" transform="translate(-586.5 -253.017)" fill="#4c4c56"/>
    <path id="Path_150" data-name="Path 150" d="M911.729,373.25l-.509.631h10.549v-.631Z" transform="translate(-576.511 -275.972)" fill="#4c4c56"/>
    <path id="Path_151" data-name="Path 151" d="M699.213,398.957c-.756-2.154-.752-4.546-1.669-6.633a8.146,8.146,0,0,1-.384-.921,2.729,2.729,0,0,1-.1-.6l-.057.014-.057.016-.057.023h0l-.052.032a2.045,2.045,0,0,0,.052.2,7.813,7.813,0,0,0,.388.921c.936,2.1.929,4.5,1.7,6.674a.629.629,0,0,0,.143.255.338.338,0,0,0,.116.071C699.224,398.987,699.217,398.974,699.213,398.957Zm0,0c-.756-2.154-.752-4.546-1.669-6.633a8.146,8.146,0,0,1-.384-.921,2.729,2.729,0,0,1-.1-.6l-.057.014-.057.016-.057.023h0l-.052.032a2.045,2.045,0,0,0,.052.2,7.813,7.813,0,0,0,.388.921c.936,2.1.929,4.5,1.7,6.674a.629.629,0,0,0,.143.255.338.338,0,0,0,.116.071C699.224,398.987,699.217,398.974,699.213,398.957Zm0,0c-.756-2.154-.752-4.546-1.669-6.633a8.146,8.146,0,0,1-.384-.921,2.729,2.729,0,0,1-.1-.6l-.057.014-.057.016-.057.023h0l-.052.032a2.045,2.045,0,0,0,.052.2,7.813,7.813,0,0,0,.388.921c.936,2.1.929,4.5,1.7,6.674a.629.629,0,0,0,.143.255.338.338,0,0,0,.116.071C699.224,398.987,699.217,398.974,699.213,398.957Zm0,0c-.756-2.154-.752-4.546-1.669-6.633a8.146,8.146,0,0,1-.384-.921,2.729,2.729,0,0,1-.1-.6l-.057.014-.057.016-.057.023h0l-.052.032a2.045,2.045,0,0,0,.052.2,7.813,7.813,0,0,0,.388.921c.936,2.1.929,4.5,1.7,6.674a.629.629,0,0,0,.143.255.338.338,0,0,0,.116.071C699.224,398.987,699.217,398.974,699.213,398.957Zm0,0c-.756-2.154-.752-4.546-1.669-6.633a8.146,8.146,0,0,1-.384-.921,2.729,2.729,0,0,1-.1-.6l-.057.014-.057.016-.057.023h0l-.052.032a2.045,2.045,0,0,0,.052.2,7.813,7.813,0,0,0,.388.921c.936,2.1.929,4.5,1.7,6.674a.629.629,0,0,0,.143.255.338.338,0,0,0,.116.071C699.224,398.987,699.217,398.974,699.213,398.957Zm0,0c-.756-2.154-.752-4.546-1.669-6.633a8.146,8.146,0,0,1-.384-.921,2.729,2.729,0,0,1-.1-.6l-.057.014-.057.016-.057.023h0l-.052.032a2.045,2.045,0,0,0,.052.2,7.813,7.813,0,0,0,.388.921c.936,2.1.929,4.5,1.7,6.674a.629.629,0,0,0,.143.255.338.338,0,0,0,.116.071C699.224,398.987,699.217,398.974,699.213,398.957Zm0,0c-.756-2.154-.752-4.546-1.669-6.633a8.146,8.146,0,0,1-.384-.921,2.729,2.729,0,0,1-.1-.6l-.057.014-.057.016-.057.023h0l-.052.032a2.045,2.045,0,0,0,.052.2,7.813,7.813,0,0,0,.388.921c.936,2.1.929,4.5,1.7,6.674a.629.629,0,0,0,.143.255.338.338,0,0,0,.116.071C699.224,398.987,699.217,398.974,699.213,398.957Zm39.459,21.451h0l-.175-.032.227-.051h0a.344.344,0,0,0,.066-.016h0c.252-.055.5-.117.747-.184h0l.257-.074h0l.036-.011c2.117-.633-.352-1.215-3.491-1.648h-.009c-3.388-.46-7.544-.762-7.544-.762l-1.3.175h-.011c-1.59.212-4.1.562-4.5.69-.486.163-4.61.364-6.048.428a.632.632,0,0,0-.214-.23l-4.24-.2v.592h0l-.032-.014a5.96,5.96,0,0,0-.575-2.3l-.032-.064c-1.095-2.1-1.315-2.631-1.315-2.631h0a.438.438,0,0,0-.03-.113c-.368-1.293-1.724-3.542-4.022-6.769l-.079-.113-.288-1.432-.05-.251H704.6a19.376,19.376,0,0,1,1-3.639c.03-.074.059-.147.091-.219l.018-.041c.032-.076.068-.152.1-.23h.252a6.954,6.954,0,0,0,6.641-6.513.047.047,0,0,0,0-.018q.014-.214.014-.428a6.923,6.923,0,0,0-.908-3.452c-.018-.032-.036-.065-.057-.1l-.036-.062-.082-.129c.518-.124,1.136.115,1.59-.18a1.176,1.176,0,0,0,.388-.474,2.489,2.489,0,0,0,.227-.69h0a.233.233,0,0,0,0-.039.029.029,0,0,0,0-.014,2.759,2.759,0,0,0,.034-.474,2.587,2.587,0,0,0-.159-.957,2.621,2.621,0,0,0-1.463-1.487,9.81,9.81,0,0,0-1.063-.292c-1.453-.394-2.682-1.365-4.088-1.906a7.327,7.327,0,0,0-3.064-.479,4.337,4.337,0,0,0-1.817.46,7.783,7.783,0,0,0-1.213.891,24.94,24.94,0,0,0-3.036,2.463,5.489,5.489,0,0,0-.441.552c-.077.113-.148.23-.227.345a.6.6,0,0,0-.547-.23h0a.891.891,0,0,0-.111,0,2.183,2.183,0,0,0-.282.03c-.227.039-1.919.493-1.919.727a7.973,7.973,0,0,0-1.944,1.211c-1.363,1.263-1.667,3.266-1.84,5.112a48,48,0,0,0-.227,6.444c.032.783.093,1.565.057,2.348a17.676,17.676,0,0,1-.4,2.734q-.293,1.4-.634,2.8c-.109.46-.284.974-.729,1.119l.166.023a.8.8,0,0,1-.166.081,4.9,4.9,0,0,0,.577.058h.134a1.544,1.544,0,0,0,.325-.039,1.2,1.2,0,0,0,.411-.193c.018-.046.034-.092.05-.14a.779.779,0,0,0,.272-.428,3.084,3.084,0,0,1-.045.778.5.5,0,0,1-.023.113,3.19,3.19,0,0,1-.781,1.5l.227-.175a3.4,3.4,0,0,1-.227.279q.491-.373.981-.762h0a.473.473,0,0,0,.057-.044h0l.559-.446v.446h0v.1c-.045,1.588-.111,5.489.245,6.421.02.055.043.11.061.163a4.632,4.632,0,0,1,.529,2.071,17.332,17.332,0,0,0,.4,2.359,2.967,2.967,0,0,1,.073,1.066,1.538,1.538,0,0,0,.041.635c.02.1.045.209.073.322a.5.5,0,0,0,.029.122c.207.838.5,1.873.193,2.285a1.834,1.834,0,0,0-.227.46,11.847,11.847,0,0,1-.584,2.016,1.911,1.911,0,0,0-.2,1.335.046.046,0,0,1,0,.012s-.016.09-.048.23c-.039.193-.1.49-.177.819v.023a11.841,11.841,0,0,1-.393,1.365h0c-.116.313-.227.539-.357.582-.454.168-.681,2.329-.681,2.329s-1.04,1.71-.843,2.131a2.837,2.837,0,0,0,.148.283l-.1.156c-.556.9-1.363,2.548-.581,3.432a3.866,3.866,0,0,0,.931.72c-.041.092-.084.191-.129.3-.858,2.039-2.18,6.776,2.9,8.774a15.976,15.976,0,0,0,1.542.513,20.488,20.488,0,0,0,2.475.529,29.955,29.955,0,0,0,3.634.329c.541.018,1.074.023,1.59.018s.983-.016,1.451-.037q.416-.016.811-.041a41.884,41.884,0,0,0,4.662-.518L716,451.624s3.052.111,4.176.764l.034.021s.184-.108.493-.32h0c.134-.092.293-.2.468-.334a15.475,15.475,0,0,0,4.331-4.884l.025-.044.248-.032h.057l.177-.025.368-.053h.066c.92-.136,1.79-.285,1.79-.285s.034,1.029.075,2.221c.014.364.025.743.039,1.112.043,1.261.082,2.407.082,2.447s.936,2.532,1.983,5.045l.818.067q3.238.262,6.475.435l.806.041.5.025c-.363-2.23-.65-4.357-.65-4.357L737.01,447.1s-.141-1.319-1.151-7.181c-.818-4.75-5.632-4.329-7.435-4-.184.034-.334.067-.454.092v-.357s-3.459.295-6.586.437l-.761.032c-.724.028-1.413.044-2.017.044a14.569,14.569,0,0,1-1.59-.064,14.877,14.877,0,0,0-5.167.559,20.958,20.958,0,0,1-3.988.366,1.2,1.2,0,0,0-.4-.083h-.227a.369.369,0,0,0,.227-.41,2.527,2.527,0,0,1,.2-1.966c.173-.249.454-.64.706-1l.613-.854v-.067l.016-.251.148-2.237.354-2.071.023-.131.032-.184.023-.133.068.023h0a4.875,4.875,0,0,0,2.952.318h.016a1.34,1.34,0,0,0,.186-.081h.036v.154l.014.269,3.79-.209h.057s.148-.741.307-1.763c.011-.083.025-.168.039-.255s.034-.23.05-.336a1.405,1.405,0,0,1,.023-.163h.227a23.528,23.528,0,0,0,5.21-.585h0a1.13,1.13,0,0,0,.343-.186,14.015,14.015,0,0,1,3.445-1.367h0l.6-.18c.434-.129.852-.249,1.222-.354.858-.23,1.472-.4,1.472-.4s5.9.555,10.315-.737h0l.073-.021C741.677,421.239,740.646,420.788,738.672,420.408Zm-41.9-29.92a1.262,1.262,0,0,0,.025.2h0a.59.59,0,0,0,.014.087.16.16,0,0,0,.018.09,2.029,2.029,0,0,0,.052.2,7.806,7.806,0,0,0,.388.921c.936,2.1.929,4.5,1.7,6.675a.628.628,0,0,0,.143.255.338.338,0,0,0,.116.071l.055.018h.064l-.025.044a.232.232,0,0,1-.018.032l-.016.025c-.3.52-.629,1.031-.956,1.482a2.119,2.119,0,0,0-.788.327l-.127.085-.055.041c-.079-.4-.188-.787-.288-1.178a27.54,27.54,0,0,1-.877-6.385v-.435c0-.557.014-1.112.048-1.669a1.4,1.4,0,0,1,.193-.732h0a.5.5,0,0,1,.336-.166Zm2.439,8.472c-.756-2.154-.752-4.546-1.669-6.633a8.137,8.137,0,0,1-.384-.921,2.727,2.727,0,0,1-.1-.6l-.057.014-.057.016-.057.023h0l-.052.032a2.049,2.049,0,0,0,.052.2,7.813,7.813,0,0,0,.388.921c.936,2.1.929,4.5,1.7,6.674a.629.629,0,0,0,.143.255.338.338,0,0,0,.116.071c-.007-.028-.014-.041-.018-.058Zm0,0c-.756-2.154-.752-4.546-1.669-6.633a8.137,8.137,0,0,1-.384-.921,2.727,2.727,0,0,1-.1-.6l-.057.014-.057.016-.057.023h0l-.052.032a2.049,2.049,0,0,0,.052.2,7.813,7.813,0,0,0,.388.921c.936,2.1.929,4.5,1.7,6.674a.629.629,0,0,0,.143.255.338.338,0,0,0,.116.071c-.007-.028-.014-.041-.018-.058Zm0,0c-.756-2.154-.752-4.546-1.669-6.633a8.137,8.137,0,0,1-.384-.921,2.727,2.727,0,0,1-.1-.6l-.057.014-.057.016-.057.023h0l-.052.032a2.049,2.049,0,0,0,.052.2,7.813,7.813,0,0,0,.388.921c.936,2.1.929,4.5,1.7,6.674a.629.629,0,0,0,.143.255.338.338,0,0,0,.116.071c-.007-.028-.014-.041-.018-.058Zm0,0c-.756-2.154-.752-4.546-1.669-6.633a8.137,8.137,0,0,1-.384-.921,2.727,2.727,0,0,1-.1-.6l-.057.014-.057.016-.057.023h0l-.052.032a2.049,2.049,0,0,0,.052.2,7.813,7.813,0,0,0,.388.921c.936,2.1.929,4.5,1.7,6.674a.629.629,0,0,0,.143.255.338.338,0,0,0,.116.071c-.007-.028-.014-.041-.018-.058Zm0,0c-.756-2.154-.752-4.546-1.669-6.633a8.137,8.137,0,0,1-.384-.921,2.727,2.727,0,0,1-.1-.6l-.057.014-.057.016-.057.023h0l-.052.032a2.049,2.049,0,0,0,.052.2,7.813,7.813,0,0,0,.388.921c.936,2.1.929,4.5,1.7,6.674a.629.629,0,0,0,.143.255.338.338,0,0,0,.116.071c-.007-.028-.014-.041-.018-.058Zm0,0c-.756-2.154-.752-4.546-1.669-6.633a8.137,8.137,0,0,1-.384-.921,2.727,2.727,0,0,1-.1-.6l-.057.014-.057.016-.057.023h0l-.052.032a2.049,2.049,0,0,0,.052.2,7.813,7.813,0,0,0,.388.921c.936,2.1.929,4.5,1.7,6.674a.629.629,0,0,0,.143.255.338.338,0,0,0,.116.071c-.007-.028-.014-.041-.018-.058Z" transform="translate(-408.448 -326.583)" fill="url(#linear-gradient-2)"/>
    <path id="Path_152" data-name="Path 152" d="M736.769,441.489a5.372,5.372,0,0,0-.872,1.367c-.034.076-.068.15-.1.23a22.548,22.548,0,0,0-1.344,5.558s-.622-.283-1.5-.725a22.683,22.683,0,0,1-5.2-3.289c-.454-.495-.618-.932-.241-1.238a2.8,2.8,0,0,0,.25-.23,7.287,7.287,0,0,0,.793-.953c.327-.46.65-.974.954-1.5.179-.308.35-.619.509-.921l.064-.12c.681-1.31,1.179-2.428,1.179-2.428s.227.074.6.2C733.546,438.059,738.218,439.926,736.769,441.489Z" transform="translate(-438.386 -363.401)" fill="#efb7b9"/>
    <path id="Path_153" data-name="Path 153" d="M860.712,628.377s.277,2.085.629,4.285l-.806-.041q-3.234-.17-6.475-.435c-1.226-2.879-2.5-6.3-2.5-6.35s-.039-1.178-.082-2.435c-.014-.442-.03-.9-.043-1.326h0c-.023-.649-.043-1.234-.054-1.6,0-.249-.014-.4-.014-.4s-1.167.207-2.217.352l-.466.062c-.241.03-.454.053-.647.067a1.643,1.643,0,0,1-.5,0c-.359-.14.386-3.683.386-3.683l1.853-4.546.518-1.266.227-.058c.111-.028.261-.06.441-.094,1.769-.329,6.5-.748,7.3,3.979.992,5.839,1.135,7.151,1.135,7.151Z" transform="translate(-531.277 -501.467)" fill="#efb7b9"/>
    <path id="Path_154" data-name="Path 154" d="M911.861,728h-.007Z" transform="translate(-580.638 -591.743)" fill="#efb7b9"/>
    <path id="Path_155" data-name="Path 155" d="M860.712,628.377s.277,2.085.629,4.285l-.806-.041q-3.234-.17-6.475-.435c-1.226-2.879-2.5-6.3-2.5-6.35s-.039-1.178-.082-2.435c-.014-.442-.03-.9-.043-1.326h0c-.023-.649-.043-1.234-.054-1.6,0-.249-.014-.4-.014-.4s-1.167.207-2.217.352l-.466.062c-.241.03-.454.053-.647.067a1.643,1.643,0,0,1-.5,0c-.359-.14.386-3.683.386-3.683l1.853-4.546.518-1.266.227-.058c.111-.028.261-.06.441-.094,1.769-.329,6.5-.748,7.3,3.979.992,5.839,1.135,7.151,1.135,7.151Z" transform="translate(-531.277 -501.467)" opacity="0.05"/>
    <path id="Path_156" data-name="Path 156" d="M911.861,728h-.007Z" transform="translate(-580.638 -591.743)" opacity="0.05"/>
    <path id="Path_157" data-name="Path 157" d="M858.471,636.879q-3.234-.17-6.475-.435l-.818-.067-.361-.03c-1.017-2.488-1.921-4.921-1.921-4.965s-.039-1.178-.082-2.435c-.052-1.57-.111-3.319-.111-3.319l-.152.025-.064.011h-.082l-.366.062-.2.032c-.361.06-.8.127-1.224.189l-.1.014-.25.032-.227.028h0c-.175.023-.341.041-.491.055l-.184.016a1.567,1.567,0,0,1-.5,0c-.359-.14.386-3.682.386-3.682l2.371-5.811.082-.023c.125-.032.388-.094.745-.156.134-.023.282-.046.441-.067,2.058-.267,5.973-.191,6.7,4.074.992,5.839,1.135,7.151,1.135,7.151l1.324,6.348S858.221,635.238,858.471,636.879Z" transform="translate(-529.212 -505.725)" fill="#efb7b9"/>
    <path id="Path_158" data-name="Path 158" d="M850.871,657.207c-.052-1.57-.111-3.321-.111-3.321s-2.271.4-3.329.481l.213-.732s3.888-1.089,3.97-.474A28.36,28.36,0,0,1,850.871,657.207Z" transform="translate(-531.261 -533.984)" opacity="0.1"/>
    <path id="Path_159" data-name="Path 159" d="M848.911,611.48v1.664a33.593,33.593,0,0,1-1.71,7.57c-.032.1-.066.2-.1.292a10.5,10.5,0,0,1-.563,1.284c-.427.06-.84.11-1.147.133a1.636,1.636,0,0,1-.5,0c-.359-.14.384-3.682.384-3.682l2.371-5.809.084-.023.516-1.268A5.921,5.921,0,0,1,848.911,611.48Z" transform="translate(-529.219 -502.041)" opacity="0.1"/>
    <path id="Path_160" data-name="Path 160" d="M730.217,610.34v1.926a33.616,33.616,0,0,1-1.71,7.572c-.039.12-.082.23-.125.352s-.1.267-.157.4c-.125.306-.266.6-.413.888h0a15.307,15.307,0,0,1-4.147,4.81c-.168.131-.325.246-.454.343H723.2c-.227.156-.391.269-.5.336s-.114.071-.114.071c-1.076-.67-4.135-.783-4.135-.783l-7.14,1.314a40.874,40.874,0,0,1-4.717.543l-.811.039c-.468.018-.954.03-1.451.032-.4,0-.811,0-1.226-.016h0a29.166,29.166,0,0,1-4.006-.38,19.776,19.776,0,0,1-2.162-.486,15.068,15.068,0,0,1-1.5-.506c-5-1.989-3.7-6.7-2.852-8.746.045-.108.089-.207.129-.3.186-.417.325-.661.325-.661l.332-.812h0l.543-1.333.12-.292.034-.085.4-.987,5.678-.746,4.172-.548,1.27-.166.861-.113,1.642-.216.618-.081a7.586,7.586,0,0,1,1.151-.092,1.589,1.589,0,0,1,.613.092,20.48,20.48,0,0,0,3.915-.364,14.4,14.4,0,0,1,5.071-.559,27.834,27.834,0,0,0,3.522.023h0l.291-.014.377-.016h.082C726.811,610.635,730.217,610.34,730.217,610.34Z" transform="translate(-410.953 -501.163)" fill="#444053"/>
    <path id="Path_161" data-name="Path 161" d="M761.1,634.621s-2.725,6.286-2.839,6.4a5.731,5.731,0,0,0,0,1.956c.109-.115,3.888-8.6,3.888-8.6Z" transform="translate(-462.26 -519.663)" opacity="0.1"/>
    <path id="Path_162" data-name="Path 162" d="M798.33,612.268a7.119,7.119,0,0,0-1.792,1.63c-.413.727-4.19,7.961-5.126,9.022a23.18,23.18,0,0,0-2.1,3.022c-.109.191-.109,1.392.552.246a9.388,9.388,0,0,1,1.792-2.762c1.294-1.422,2.725-4.638,3.279-5.28s1.324-2.571,2.289-3.717l1.849-2.189Z" transform="translate(-486.294 -502.626)" opacity="0.1"/>
    <path id="Path_163" data-name="Path 163" d="M823.653,665.638a1.358,1.358,0,0,0-1.874.474C820.871,667.256,823.653,665.638,823.653,665.638Z" transform="translate(-511.287 -543.584)" opacity="0.1"/>
    <path id="Path_164" data-name="Path 164" d="M831.628,667.79s-.8,1.413-1.186,1.526S831.628,667.79,831.628,667.79Z" transform="translate(-518.078 -545.391)" opacity="0.1"/>
    <path id="Path_165" data-name="Path 165" d="M826.616,669.32s-.634,1.119-1.186,1.006Z" transform="translate(-514.25 -546.569)" opacity="0.1"/>
    <path id="Path_166" data-name="Path 166" d="M806.873,533.722s5.843-.251,6.422-.447,5.7-.865,5.7-.865,15.189,1.089,10.862,2.4-10.2.753-10.2.753-5.734,1.51-6.616,2.3-7.388.81-7.388.81Z" transform="translate(-498.984 -438.159)" fill="#efb7b9"/>
    <path id="Path_167" data-name="Path 167" d="M806.873,533.722s5.843-.251,6.422-.447,5.7-.865,5.7-.865,15.189,1.089,10.862,2.4-10.2.753-10.2.753-5.734,1.51-6.616,2.3-7.388.81-7.388.81Z" transform="translate(-498.984 -438.159)" opacity="0.05"/>
    <path id="Path_168" data-name="Path 168" d="M707.675,479.063s-5.348,1.841-2.757,6.536a20.84,20.84,0,0,0,5.927,6.9l8.6,6.035s3.611,2.094,5.264,1.229l2.7-.23.454-7.181s-2.271,1.788-4.742-.69-5.514-4.164-5.762-5.5S710.789,477.917,707.675,479.063Z" transform="translate(-420.545 -396.794)" fill="#a36468"/>
    <path id="Path_169" data-name="Path 169" d="M793.87,538.322s2.784,1.006,2.675,1.061-2.675,1.033-2.675,1.033l.193,3.828,3.777-.209s1.379-6.969.193-7.669l-4.163-.2Z" transform="translate(-489.852 -441.219)" fill="#67647e"/>
    <path id="Path_170" data-name="Path 170" d="M793.87,538.322s2.784,1.006,2.675,1.061-2.675,1.033-2.675,1.033l.193,3.828,3.777-.209s1.379-6.969.193-7.669l-4.163-.2Z" transform="translate(-489.852 -441.219)" opacity="0.1"/>
    <path id="Path_171" data-name="Path 171" d="M746.006,441.512a5.377,5.377,0,0,0-.872,1.367c-.034.076-.068.15-.1.23-2.028,0-3.486-1.6-4.731-3.027-.227-.265-.8.136-.99-.161-.02-.035-.041-.069-.064-.1l.064-.12c.681-1.31,1.179-2.428,1.179-2.428s.227.074.6.2C742.784,438.083,747.455,439.949,746.006,441.512Z" transform="translate(-447.624 -363.199)" opacity="0.1"/>
    <path id="Path_172" data-name="Path 172" d="M748.456,408.351a6.883,6.883,0,0,1-6.772,6.925h-.066a6.786,6.786,0,0,1-5.128-2.348,6.982,6.982,0,0,1-.244-8.871,6.783,6.783,0,0,1,7.613-2.26A6.924,6.924,0,0,1,748.456,408.351Z" transform="translate(-444.173 -335.245)" fill="#efb7b9"/>
    <path id="Path_173" data-name="Path 173" d="M710.957,618.22s-.52.644-1.095,1.245a4.281,4.281,0,0,1-1.195.99,38.9,38.9,0,0,0-3.8,2.654s-2.48,1.705-3.114,2.207-2.923.2-2.923.2a13.018,13.018,0,0,1-3.568-1.381,9.06,9.06,0,0,1,.454-.957l1.433-3.521,5.678-.743Z" transform="translate(-413.619 -507.23)" opacity="0.1"/>
    <path id="Path_174" data-name="Path 174" d="M707.075,616.28s-.518.644-1.092,1.245a4.446,4.446,0,0,1-1.195.99,38.487,38.487,0,0,0-3.8,2.654s-2.482,1.705-3.116,2.207-2.921.2-2.921.2-3.143-.69-4.247-1.956c-.772-.882.027-2.516.572-3.416a6.911,6.911,0,0,1,.42-.635Z" transform="translate(-409.848 -505.736)" fill="#67647e"/>
    <path id="Path_175" data-name="Path 175" d="M754.461,489.307c-1.876-.168-8.051-7.825-8.051-7.825l.141-.2,1.294-1.816h3.027l.334,1.676c2.3,3.273,3.659,5.549,4.027,6.852C755.5,488.946,755.247,489.378,754.461,489.307Z" transform="translate(-453.161 -396.624)" fill="#67647e"/>
    <path id="Path_176" data-name="Path 176" d="M754.461,495.381c-1.876-.168-8.051-7.825-8.051-7.825l.141-.2a35.13,35.13,0,0,1,3.114,3.3c4.519,5.39,5.414,3.885,5.569,3.416C755.5,495.02,755.247,495.452,754.461,495.381Z" transform="translate(-453.161 -402.755)" opacity="0.1"/>
    <path id="Path_177" data-name="Path 177" d="M710.112,616.28s-.518.644-1.092,1.245a3.061,3.061,0,0,1-.947.207,6.754,6.754,0,0,0-2.371,1.119,14.023,14.023,0,0,0-3.472.138,10.375,10.375,0,0,1-2.675.364c-3.886,1.123-4.96-.582-5.244-1.151a6.911,6.911,0,0,1,.42-.635Z" transform="translate(-412.885 -504.046)" opacity="0.1"/>
    <path id="Path_178" data-name="Path 178" d="M716.616,490.7a2.464,2.464,0,0,1-.034.32c-.014.1-.027.209-.043.308a5.112,5.112,0,0,1-.5,1.632c-.5.838-2.012,4.106-2.012,4.106l-.1.6-.052.315-.055.311-.37,2.2-.166,2.543s-.908,1.284-1.294,1.841a2.552,2.552,0,0,0-.193,1.956c.139.587-1.267.67-1.267.67a10.09,10.09,0,0,1-2.7.951,6.764,6.764,0,0,0-2.371,1.114,13.93,13.93,0,0,0-3.472.14,10.272,10.272,0,0,1-2.675.364c-4.161,1.2-5.1-.84-5.292-1.259s.827-2.122.827-2.122.227-2.152.661-2.32.965-3.015.965-3.015a2.017,2.017,0,0,1,.193-1.342c.359-.474.332-1.816.8-2.458s-.5-2.794-.329-3.353-.525-2.822-.47-3.409a5.116,5.116,0,0,0-.579-2.235c-.377-1-.27-5.45-.227-6.725,0-.216.011-.341.011-.341s.386-1.259,1.406-3.772a5.068,5.068,0,0,1,3.307-2.859,4.114,4.114,0,0,1,.416-.1,2.888,2.888,0,0,1,.586.15,13.748,13.748,0,0,1,4.706,3.222,35.561,35.561,0,0,1,2.868,3.066c5.171,6.159,5.594,3.284,5.594,3.284s.227.525,1.292,2.619A6.744,6.744,0,0,1,716.616,490.7Z" transform="translate(-412.645 -394.473)" fill="#a36468"/>
    <path id="Path_179" data-name="Path 179" d="M729.478,463.974l-5.187-4.194s-1.869.23-2.641,3.411l5.339,4.739Z" transform="translate(-434.017 -381.028)" opacity="0.1"/>
    <path id="Path_180" data-name="Path 180" d="M729.123,463.273l-.908,1.287-.922,1.319-.695,1.033-4.263-3.639-.734-.644-.411-.354a4.873,4.873,0,0,1,1.742-2.992,2.15,2.15,0,0,1,.908-.412Z" transform="translate(-433.662 -380.306)" fill="#67647e"/>
    <path id="Path_181" data-name="Path 181" d="M830.861,542.093c-4.329,1.312-10.2.755-10.2.755s-5.734,1.508-6.616,2.3c-.568.5-3.468.69-5.451.766-1.1.041-1.926.044-1.926.044L807.88,541l.7-.032c1.569-.074,5.269-.262,5.723-.417.579-.2,5.7-.865,5.7-.865S835.188,540.779,830.861,542.093Z" transform="translate(-499.765 -443.894)" fill="#efb7b9"/>
    <path id="Path_182" data-name="Path 182" d="M725.185,501.237a5.112,5.112,0,0,1-.5,1.632c-.5.838-2.012,4.106-2.012,4.106l-.209,1.241a14.841,14.841,0,0,1-2.044-.953l-8.607-6.042a20.808,20.808,0,0,1-5.927-6.9c-2.591-4.7,2.757-6.536,2.757-6.536,3.114-1.151,9.427,5.754,9.675,7.1s3.282,3.017,5.762,5.5A5.051,5.051,0,0,0,725.185,501.237Z" transform="translate(-421.292 -403.653)" opacity="0.1"/>
    <path id="Path_183" data-name="Path 183" d="M725.262,498.372c-.021.219-.045.428-.077.628a5.112,5.112,0,0,1-.5,1.632c-.5.838-2.012,4.106-2.012,4.106l-.1.6a14.641,14.641,0,0,1-2.157-.994l-8.6-6.044a20.808,20.808,0,0,1-5.927-6.9c-2.591-4.7,2.757-6.539,2.757-6.539,3.114-1.151,9.427,5.754,9.675,7.1s3.282,3.017,5.762,5.505a4.978,4.978,0,0,0,1.181.911Z" transform="translate(-421.292 -401.348)" opacity="0.1"/>
    <path id="Path_184" data-name="Path 184" d="M728.823,499.622l-.441,7.179-2.7.23a1.313,1.313,0,0,1-.184.081c-1.721.64-5.08-1.31-5.08-1.31l-8.6-6.042a20.808,20.808,0,0,1-5.927-6.9c-2.591-4.7,2.757-6.536,2.757-6.536,3.114-1.151,9.427,5.754,9.675,7.1s3.282,3.017,5.762,5.5a4.952,4.952,0,0,0,1.24.921A3.348,3.348,0,0,0,728.823,499.622Z" transform="translate(-421.295 -402.528)" fill="#a36468"/>
    <path id="Path_185" data-name="Path 185" d="M797.372,544.55l-.441,7.179-2.7.23a1.317,1.317,0,0,1-.184.081l-.175-3.489s2.564-.978,2.675-1.033-2.675-1.061-2.675-1.061v-1.669A3.348,3.348,0,0,0,797.372,544.55Z" transform="translate(-489.851 -447.79)" opacity="0.1"/>
    <path id="Path_186" data-name="Path 186" d="M808.546,550.192c-1.1.041-1.926.044-1.926.044l1.222-4.944.7-.032C808.991,546.045,808.8,548.351,808.546,550.192Z" transform="translate(-499.707 -448.212)" opacity="0.1"/>
    <path id="Path_187" data-name="Path 187" d="M794.84,545.6s2.784,1.006,2.675,1.061-2.675,1.033-2.675,1.033l.193,3.828,3.777-.209s1.378-6.969.193-7.669l-4.163-.2Z" transform="translate(-490.602 -446.956)" fill="#67647e"/>
    <path id="Path_188" data-name="Path 188" d="M716.32,572.71a5.7,5.7,0,0,1-1.71,1.13Z" transform="translate(-428.57 -469.615)" opacity="0.1"/>
    <path id="Path_189" data-name="Path 189" d="M712.31,581.953s2.287-.085,2.562-.559S712.31,581.953,712.31,581.953Z" transform="translate(-426.793 -476.326)" opacity="0.1"/>
    <path id="Path_190" data-name="Path 190" d="M707.33,596.155c.139,0,2.893-.391,3-.755Z" transform="translate(-422.943 -487.45)" opacity="0.1"/>
    <path id="Path_191" data-name="Path 191" d="M703.57,604.169a7.494,7.494,0,0,0,2.673-1.119Z" transform="translate(-420.035 -493.491)" opacity="0.1"/>
    <path id="Path_192" data-name="Path 192" d="M731.85,605.551s5.982,0,6.257-1.116S731.85,605.551,731.85,605.551Z" transform="translate(-441.902 -494.353)" opacity="0.1"/>
    <path id="Path_193" data-name="Path 193" d="M751.63,539.731c.111,0,4.715,0,5.155-.642S751.63,539.731,751.63,539.731Z" transform="translate(-457.194 -442.998)" opacity="0.1"/>
    <path id="Path_194" data-name="Path 194" d="M708.341,461.2a4.519,4.519,0,0,1,.059.69,4.33,4.33,0,0,1-.068.766,6.7,6.7,0,0,1-.427,1.4l-.048.113c-.068.161-.141.318-.216.474a13.071,13.071,0,0,1-1.19,1.989,21.622,21.622,0,0,1-3.57,3.763q-.347.3-.7.587c0-.216.011-.341.011-.341s.386-1.259,1.406-3.772a5.068,5.068,0,0,1,3.307-2.859l-.411-.354a4.873,4.873,0,0,1,1.742-2.992C708.271,460.83,708.314,461.01,708.341,461.2Z" transform="translate(-418.963 -381.818)" opacity="0.1"/>
    <path id="Path_195" data-name="Path 195" d="M747.555,405a.794.794,0,0,0-.2.081c-.432.242-.557.815-.908,1.176a2.6,2.6,0,0,1-1.621.564,1.988,1.988,0,0,0-1.533.723,3.741,3.741,0,0,0-.288,1.28.411.411,0,0,1-.089.212.405.405,0,0,1-.277.092,8.717,8.717,0,0,1-3.025-.594,1.6,1.6,0,0,0-1.463.23,1.7,1.7,0,0,0-.432,1.3v.041a9.011,9.011,0,0,1,.041,1.381,2.277,2.277,0,0,1-1.188,1.687,2.08,2.08,0,0,1-.859.249.687.687,0,0,1-.341-.051c.2-.35.4-.69.572-1.038a6.983,6.983,0,0,1,2.18-9.548,6.785,6.785,0,0,1,9.422,2.21Z" transform="translate(-444.27 -335.417)" opacity="0.1"/>
    <path id="Path_196" data-name="Path 196" d="M715.769,391.224a1.167,1.167,0,0,1-.379.472c-.518.341-1.26-.034-1.8.269-.434.242-.556.815-.908,1.176a2.586,2.586,0,0,1-1.622.564,1.987,1.987,0,0,0-1.533.723,3.782,3.782,0,0,0-.288,1.28.391.391,0,0,1-.089.212.412.412,0,0,1-.277.092,8.772,8.772,0,0,1-3.025-.594,1.6,1.6,0,0,0-1.46.23,1.617,1.617,0,0,0-.434,1.3,10.218,10.218,0,0,1,.043,1.418,2.284,2.284,0,0,1-2.044,1.936.553.553,0,0,1-.42-.108.611.611,0,0,1-.139-.253c-.756-2.154-.75-4.546-1.667-6.635a7.551,7.551,0,0,1-.384-.921c-.018-.064-.036-.131-.05-.2a3.063,3.063,0,0,1-.055-.4.563.563,0,0,0-.259.108.485.485,0,0,0-.073.078,1.38,1.38,0,0,0-.191.73,27.975,27.975,0,0,0,.818,8.555,9.049,9.049,0,0,1,.393,2.147,5.8,5.8,0,0,1-.545,2.276c-1.424,3.328-4.285,5.766-7.131,7.968a3.231,3.231,0,0,0,.845-2.378.931.931,0,0,1-.72.654,2.739,2.739,0,0,1-1.015-.016c.436-.145.606-.665.715-1.116q.334-1.381.62-2.787a17.762,17.762,0,0,0,.4-2.72c.034-.778-.025-1.558-.057-2.338a47.956,47.956,0,0,1,.227-6.41c.168-1.841.472-3.832,1.805-5.089a7.827,7.827,0,0,1,1.908-1.206c0-.23,1.665-.69,1.885-.723a1.771,1.771,0,0,1,.277-.032.568.568,0,0,1,.593.315c.082-.15.173-.3.268-.437a5.094,5.094,0,0,1,.432-.55,25.026,25.026,0,0,1,2.989-2.467,7.694,7.694,0,0,1,1.19-.888,4.238,4.238,0,0,1,1.783-.46,7.146,7.146,0,0,1,3.009.479c1.381.539,2.587,1.505,4.015,1.9a9.451,9.451,0,0,1,1.042.292,2.543,2.543,0,0,1,1.434,1.479,2.59,2.59,0,0,1-.117,2.07Z" transform="translate(-410.611 -322.892)" fill="#444053"/>
    <g id="Group_30" data-name="Group 30" transform="translate(280.74 66.29)" opacity="0.1">
      <path id="Path_197" data-name="Path 197" d="M692.739,497.108a3.22,3.22,0,0,0,.207-1.358.935.935,0,0,1-.722.654,1.45,1.45,0,0,1-.263.039,1.153,1.153,0,0,1-.64.838,2.742,2.742,0,0,0,1.015.018A1.129,1.129,0,0,0,692.739,497.108Z" transform="translate(-691.32 -474.658)"/>
      <path id="Path_198" data-name="Path 198" d="M740.416,404.11a2.6,2.6,0,0,1-.273,1.045,1.182,1.182,0,0,1-.382.46c-.516.341-1.26-.032-1.8.269-.432.242-.556.817-.908,1.176a2.582,2.582,0,0,1-1.622.564,2.017,2.017,0,0,0-1.533.723,3.741,3.741,0,0,0-.288,1.28.324.324,0,0,1-.115.236.315.315,0,0,1-.25.07,8.719,8.719,0,0,1-3.025-.6,1.6,1.6,0,0,0-1.463.23,1.706,1.706,0,0,0-.432,1.3,9.83,9.83,0,0,1,.041,1.415,2.27,2.27,0,0,1-2.044,1.938.56.56,0,0,1-.42-.108.622.622,0,0,1-.139-.255c-.756-2.154-.752-4.546-1.669-6.633a8.125,8.125,0,0,1-.382-.921,2.737,2.737,0,0,1-.107-.6.5.5,0,0,0-.332.186,1.429,1.429,0,0,0-.191.73,28.153,28.153,0,0,0,.227,5.524,28.209,28.209,0,0,1-.111-4.635,1.379,1.379,0,0,1,.191-.73.476.476,0,0,1,.332-.186,2.75,2.75,0,0,0,.1.6,7.927,7.927,0,0,0,.384.921c.908,2.09.908,4.479,1.667,6.633a.637.637,0,0,0,.141.255.544.544,0,0,0,.418.127,2.284,2.284,0,0,0,2.044-1.936,10.219,10.219,0,0,0-.043-1.418,1.742,1.742,0,0,1,.434-1.3,1.563,1.563,0,0,1,1.46-.23,8.748,8.748,0,0,0,3.025.594.412.412,0,0,0,.277-.092.4.4,0,0,0,.089-.214,3.716,3.716,0,0,1,.289-1.277,1.993,1.993,0,0,1,1.533-.725,2.6,2.6,0,0,0,1.624-.562c.343-.361.466-.934.908-1.178.538-.3,1.283.074,1.8-.267a1.167,1.167,0,0,0,.379-.472,2.642,2.642,0,0,0,.161-1.94Z" transform="translate(-715.834 -404.11)"/>
      <path id="Path_199" data-name="Path 199" d="M702.855,461.277a5.818,5.818,0,0,1-.543,2.276c-1.274,2.976-3.7,5.241-6.232,7.259a3.24,3.24,0,0,1-.79,1.611c2.843-2.2,5.709-4.638,7.131-7.966a5.8,5.8,0,0,0,.545-2.276,5.114,5.114,0,0,0-.116-1C702.853,461.2,702.855,461.24,702.855,461.277Z" transform="translate(-694.388 -448.045)"/>
    </g>
    <path id="Path_200" data-name="Path 200" d="M726.418,404c-.2.953-.486,2.191-.7,2.829a3.508,3.508,0,0,1-.055-.4.557.557,0,0,0-.257.108c0-.67.079-1.666.148-2.412a.57.57,0,0,1,.595.315A4.011,4.011,0,0,1,726.418,404Z" transform="translate(-436.92 -336.894)" opacity="0.1"/>
    <path id="Path_201" data-name="Path 201" d="M725.931,404c-.2.953-.486,2.191-.7,2.829a3.053,3.053,0,0,1-.055-.4.563.563,0,0,0-.259.108c0-.67.08-1.666.15-2.412a.568.568,0,0,1,.593.315C725.744,404.29,725.847,404.143,725.931,404Z" transform="translate(-436.541 -336.894)" fill="#67647e"/>
    <g id="Group_31" data-name="Group 31" transform="translate(333.823 17.743)" opacity="0.7">
      <path id="Path_202" data-name="Path 202" d="M933,179.57h37.624v37.087H933Z" transform="translate(-931.299 -177.828)" fill="#2e001e"/>
      <path id="Path_203" data-name="Path 203" d="M925.51,172v40.563h41.045V172Zm1.71,1.735h37.624V210.83H927.211Z" transform="translate(-925.51 -172)" fill="#ff2bc2"/>
      <path id="Path_204" data-name="Path 204" d="M981.628,221.278a2.31,2.31,0,0,0-.992-.175c-2.153,0-3.591,1.682-3.591,4.472,0,3.19,1.472,4.472,3.386,4.472a3.154,3.154,0,0,0,1.181-.191v-8.578Zm-7.667,4.437c0-4.039,2.564-7.195,6.772-7.195a7.022,7.022,0,0,1,.888.037v-4.506a.174.174,0,0,1,.173-.175h2.753c.136,0,.17.053.17.14v15.839a12.378,12.378,0,0,0,.086,1.7c0,.122,0,.14-.1.191a10.092,10.092,0,0,1-4.379,1.006c-3.711,0-6.359-2.322-6.359-7.036Zm-5.832-2.808,4.794,9.4c.086.138.034.276-.1.276h-2.975a.334.334,0,0,1-.359-.23q-1.642-3.432-3.352-7.123H966.1c-1.026,2.322-2.155,4.854-3.25,7.135a.329.329,0,0,1-.309.191H959.7c-.17,0-.186-.14-.1-.244l4.685-9.133-4.531-9.054a.156.156,0,0,1-.028-.172.152.152,0,0,1,.148-.088h2.941c.17,0,.257.035.307.191,1.079,2.3,2.173,4.576,3.2,6.9h.034c.99-2.288,2.085-4.6,3.13-6.863.084-.14.136-.23.307-.23h2.755c.136,0,.186.1.1.26l-4.515,8.787Z" transform="translate(-951.821 -204.232)" fill="#ff2bc2"/>
    </g>
    <g id="Group_32" data-name="Group 32" transform="translate(171.05 20.286)" opacity="0.7">
      <path id="a" d="M216.523,244.46l12.859,25.5-21.611-25.5Z" transform="translate(-207.77 -230.326)" fill="#ea6c00"/>
      <path id="b" d="M315.8,244.46l-12.859,25.5,21.611-25.5Z" transform="translate(-281.326 -230.326)" fill="#ea6c00"/>
      <path id="c" d="M246.31,244.46h25.715l-12.856,25.5Z" transform="translate(-237.557 -230.326)" fill="#fdad00"/>
      <path id="d" d="M259.153,183.05l-12.182,1.3-.681,12.829Z" transform="translate(-237.542 -183.05)" fill="#fdd231"/>
      <path id="e" d="M302.93,183.05l12.18,1.3.681,12.829Z" transform="translate(-281.319 -183.05)" fill="#fdd231"/>
      <path id="f" d="M366.009,201.549,356.58,188.72l.681,12.829Z" transform="translate(-322.785 -187.415)" fill="#fdad00"/>
      <path id="g" d="M207.77,201.549,217.2,188.72l-.681,12.829Z" transform="translate(-207.77 -187.415)" fill="#fdad00"/>
      <path id="h" d="M259.169,183.05,246.31,197.184h25.715Z" transform="translate(-237.557 -183.05)" fill="#feeeb7"/>
    </g>
  </g>
</svg>
