<svg xmlns="http://www.w3.org/2000/svg" width="67.868" height="55.122" viewBox="0 0 67.868 55.122">
  <path id="twitter" d="M60.892,61.819c.043.6.043,1.206.043,1.809,0,18.388-14,39.576-39.576,39.576A39.307,39.307,0,0,1,0,96.959a28.775,28.775,0,0,0,3.359.172,27.857,27.857,0,0,0,17.269-5.943A13.934,13.934,0,0,1,7.622,81.543a17.54,17.54,0,0,0,2.627.215,14.711,14.711,0,0,0,3.66-.474A13.911,13.911,0,0,1,2.756,67.633v-.172a14.008,14.008,0,0,0,6.287,1.766,13.93,13.93,0,0,1-4.306-18.6,39.538,39.538,0,0,0,28.68,14.556,15.7,15.7,0,0,1-.345-3.187,13.923,13.923,0,0,1,24.073-9.517,27.385,27.385,0,0,0,8.828-3.359,13.872,13.872,0,0,1-6.115,7.665,27.885,27.885,0,0,0,8.01-2.153A29.9,29.9,0,0,1,60.892,61.819Z" transform="translate(0 -48.082)" fill="#2f89fc"/>
</svg>
